<svg width="31" height="31" viewBox="0 0 31 31" fill="none" xmlns="http://www.w3.org/2000/svg">
<path d="M29.0625 24.2188L27.6927 22.8489L25.1875 25.3541V17.4375H23.25V25.3541L20.7448 22.8489L19.375 24.2188L24.2188 29.0625L29.0625 24.2188Z" fill="white"/>
<path d="M17.4375 27.125H7.75V3.87502H15.5V9.68752C15.5015 10.2009 15.7062 10.6928 16.0692 11.0559C16.4322 11.4189 16.9241 11.6235 17.4375 11.625H23.25V14.5313H25.1875V9.68752C25.1909 9.56021 25.1667 9.43366 25.1165 9.3166C25.0664 9.19953 24.9914 9.09473 24.8969 9.0094L18.1156 2.22815C18.0303 2.13355 17.9255 2.05857 17.8085 2.0084C17.6914 1.95822 17.5648 1.93404 17.4375 1.93752H7.75C7.23661 1.93906 6.74469 2.14368 6.38167 2.5067C6.01865 2.86972 5.81403 3.36164 5.8125 3.87502V27.125C5.81403 27.6384 6.01865 28.1303 6.38167 28.4934C6.74469 28.8564 7.23661 29.061 7.75 29.0625H17.4375V27.125ZM17.4375 4.26252L22.8625 9.68752H17.4375V4.26252Z" fill="white"/>
</svg>
