<svg width="31" height="31" viewBox="0 0 31 31" fill="none" xmlns="http://www.w3.org/2000/svg">
<path d="M18.4062 23.25H3.875L3.87209 8.62769L14.9488 16.2963C15.1108 16.4084 15.303 16.4684 15.5 16.4684C15.697 16.4684 15.8892 16.4084 16.0512 16.2963L27.125 8.63156V17.4375H29.0625V7.75C29.0617 7.23638 28.8574 6.74401 28.4942 6.38083C28.131 6.01764 27.6386 5.81327 27.125 5.8125H3.875C3.3613 5.81301 2.86879 6.01731 2.50555 6.38055C2.14231 6.74379 1.93801 7.2363 1.9375 7.75V23.25C1.93827 23.7636 2.14264 24.256 2.50583 24.6192C2.86901 24.9824 3.36138 25.1867 3.875 25.1875H18.4062V23.25ZM24.9928 7.75L15.5 14.322L6.00722 7.75H24.9928Z" fill="white"/>
<path d="M25.1875 27.125C27.3276 27.125 29.0625 25.3901 29.0625 23.25C29.0625 21.1099 27.3276 19.375 25.1875 19.375C23.0474 19.375 21.3125 21.1099 21.3125 23.25C21.3125 25.3901 23.0474 27.125 25.1875 27.125Z" fill="white"/>
</svg>
