<svg width="26" height="26" viewBox="0 0 26 26" fill="none" xmlns="http://www.w3.org/2000/svg">
<path fill-rule="evenodd" clip-rule="evenodd" d="M8.08712 1.15483C9.35787 1.09633 9.76304 1.08333 13 1.08333C16.237 1.08333 16.6422 1.09741 17.9119 1.15483C19.1815 1.21224 20.0482 1.41483 20.8065 1.70841C21.6006 2.00849 22.321 2.47758 22.9169 3.08424C23.5235 3.67899 23.9915 4.39833 24.2905 5.1935C24.5852 5.95183 24.7867 6.8185 24.8452 8.086C24.9037 9.35891 24.9167 9.76408 24.9167 13C24.9167 16.237 24.9026 16.6422 24.8452 17.9129C24.7878 19.1804 24.5852 20.0471 24.2905 20.8054C23.9915 21.6007 23.5228 22.3212 22.9169 22.9168C22.321 23.5235 21.6006 23.9915 20.8065 24.2905C20.0482 24.5852 19.1815 24.7867 17.914 24.8452C16.6422 24.9037 16.237 24.9167 13 24.9167C9.76304 24.9167 9.35787 24.9026 8.08712 24.8452C6.81962 24.7877 5.95296 24.5852 5.19462 24.2905C4.39937 23.9915 3.67885 23.5227 3.08321 22.9168C2.47695 22.3217 2.0078 21.6015 1.70846 20.8065C1.41487 20.0482 1.21337 19.1815 1.15487 17.914C1.09637 16.6411 1.08337 16.2359 1.08337 13C1.08337 9.763 1.09746 9.35783 1.15487 8.08816C1.21229 6.8185 1.41487 5.95183 1.70846 5.1935C2.00824 4.39842 2.47775 3.67825 3.08429 3.08316C3.67908 2.47704 4.39889 2.00789 5.19354 1.70841C5.95187 1.41483 6.81854 1.21333 8.08604 1.15483H8.08712ZM17.8155 3.29983C16.5588 3.24241 16.1818 3.2305 13 3.2305C9.81829 3.2305 9.44129 3.24241 8.18462 3.29983C7.02221 3.35291 6.39171 3.54683 5.97137 3.71041C5.41562 3.92708 5.01804 4.18383 4.60096 4.60091C4.20559 4.98555 3.90132 5.4538 3.71046 5.97133C3.54687 6.39166 3.35296 7.02216 3.29987 8.18458C3.24246 9.44124 3.23054 9.81825 3.23054 13C3.23054 16.1817 3.24246 16.5587 3.29987 17.8154C3.35296 18.9778 3.54687 19.6083 3.71046 20.0287C3.90112 20.5454 4.20554 21.0145 4.60096 21.3991C4.98554 21.7945 5.45462 22.0989 5.97137 22.2896C6.39171 22.4532 7.02221 22.6471 8.18462 22.7002C9.44129 22.7576 9.81721 22.7695 13 22.7695C16.1829 22.7695 16.5588 22.7576 17.8155 22.7002C18.9779 22.6471 19.6084 22.4532 20.0287 22.2896C20.5845 22.0729 20.982 21.8162 21.3991 21.3991C21.7945 21.0145 22.099 20.5454 22.2896 20.0287C22.4532 19.6083 22.6471 18.9778 22.7002 17.8154C22.7576 16.5587 22.7695 16.1817 22.7695 13C22.7695 9.81825 22.7576 9.44124 22.7002 8.18458C22.6471 7.02216 22.4532 6.39166 22.2896 5.97133C22.073 5.41558 21.8162 5.018 21.3991 4.60091C21.0145 4.20557 20.5462 3.90131 20.0287 3.71041C19.6084 3.54683 18.9779 3.35291 17.8155 3.29983V3.29983ZM11.478 16.6736C12.328 17.0274 13.2745 17.0752 14.1559 16.8087C15.0372 16.5422 15.7987 15.978 16.3103 15.2124C16.8219 14.4469 17.0518 13.5274 16.9608 12.6112C16.8697 11.6949 16.4635 10.8387 15.8113 10.1887C15.3955 9.77326 14.8929 9.45512 14.3394 9.25724C13.7859 9.05935 13.1955 8.98664 12.6106 9.04433C12.0256 9.10202 11.4608 9.28869 10.9567 9.59089C10.4525 9.89309 10.0217 10.3033 9.69512 10.792C9.36856 11.2807 9.15441 11.8357 9.0681 12.4171C8.98179 12.9985 9.02545 13.5918 9.19596 14.1543C9.36646 14.7168 9.65956 15.2345 10.0542 15.6701C10.4487 16.1057 10.935 16.4484 11.478 16.6736ZM8.66887 8.66883C9.23765 8.10005 9.91289 7.64887 10.656 7.34105C11.3992 7.03323 12.1957 6.8748 13 6.8748C13.8044 6.8748 14.6009 7.03323 15.3441 7.34105C16.0872 7.64887 16.7624 8.10005 17.3312 8.66883C17.9 9.23761 18.3512 9.91284 18.659 10.656C18.9668 11.3991 19.1252 12.1956 19.1252 13C19.1252 13.8044 18.9668 14.6009 18.659 15.344C18.3512 16.0871 17.9 16.7624 17.3312 17.3312C16.1825 18.4799 14.6245 19.1252 13 19.1252C11.3755 19.1252 9.81757 18.4799 8.66887 17.3312C7.52018 16.1825 6.87485 14.6245 6.87485 13C6.87485 11.3755 7.52018 9.81753 8.66887 8.66883V8.66883ZM20.4837 7.787C20.6247 7.65404 20.7375 7.49415 20.8155 7.3168C20.8936 7.13945 20.9353 6.94824 20.9381 6.7545C20.9409 6.56076 20.9048 6.36842 20.832 6.18887C20.7591 6.00932 20.651 5.84621 20.514 5.7092C20.377 5.57219 20.2139 5.46407 20.0343 5.39122C19.8548 5.31838 19.6624 5.2823 19.4687 5.28513C19.275 5.28795 19.0838 5.32962 18.9064 5.40767C18.7291 5.48571 18.5692 5.59855 18.4362 5.73949C18.1776 6.01361 18.0361 6.37771 18.0416 6.7545C18.047 7.1313 18.1992 7.49111 18.4656 7.75757C18.7321 8.02404 19.0919 8.17616 19.4687 8.18165C19.8455 8.18715 20.2096 8.04558 20.4837 7.787V7.787Z" fill="white"/>
</svg>
