<svg id="Capa_1" data-name="Capa 1" xmlns="http://www.w3.org/2000/svg" viewBox="0 0 250 150"><defs><style>.cls-1{fill:#1e2f98;}.cls-2{fill:#e83d21;}</style></defs><title>Minus Pain</title><path class="cls-1" d="M24.688,70.384h5.529a1.937,1.937,0,0,1,2.144,2.144l1.016,23.813H27.96L27.1,74.861h-.64L22.543,90.924a2.124,2.124,0,0,1-2.332,1.843H16.449a2.125,2.125,0,0,1-2.333-1.843L10.167,74.861h-.64l-.752,21.48H3.357L4.3,72.528a1.959,1.959,0,0,1,2.145-2.144h5.529a2.113,2.113,0,0,1,2.257,1.844l3.16,12.94q.3,1.242.678,3.649h.489q.036-.187.282-1.542t.395-2.107l3.122-12.94A2.186,2.186,0,0,1,24.688,70.384Z"/><path class="cls-1" d="M47.6,96.341H41.879V70.384H47.6Z"/><path class="cls-1" d="M78.519,70.384V94.272a1.812,1.812,0,0,1-2.031,2.069H72.914a2.1,2.1,0,0,1-1.354-.395,3.89,3.89,0,0,1-.941-1.3L63.81,80.805a24.035,24.035,0,0,1-1.58-4.026h-.414a29.912,29.912,0,0,1,.264,4.139V96.341H56.625V72.453a1.829,1.829,0,0,1,2.069-2.069h3.5a2.1,2.1,0,0,1,1.355.395,3.906,3.906,0,0,1,.94,1.3l6.584,13.43q.939,1.881,1.88,4.176h.377q-.226-2.936-.226-4.364V70.384Z"/><path class="cls-1" d="M108.124,70.384V86q0,5.945-2.276,8.389T98,96.83q-5.868,0-8.257-2.445T87.358,86V70.384h5.718V86q0,3.575,1,4.89T97.741,92.2q2.634,0,3.63-1.317t1-4.89V70.384Z"/><path class="cls-1" d="M126.519,86.522l-5.229-1.843a7.143,7.143,0,0,1-5.379-7.6q0-4.288,2.088-5.736t7.354-1.449a31.521,31.521,0,0,1,8.54,1.016l-.377,3.912q-3.273-.112-8.125-.113a7.488,7.488,0,0,0-3.01.4q-.753.4-.752,1.975a2.537,2.537,0,0,0,.564,1.844,5.732,5.732,0,0,0,2.144,1.091l4.928,1.692a8.212,8.212,0,0,1,4.251,2.878,8.3,8.3,0,0,1,1.242,4.759q0,4.364-2.107,5.925t-7.524,1.561a42.011,42.011,0,0,1-8.915-.978l.339-4.138q8.011.188,8.576.188a6.417,6.417,0,0,0,3.066-.489,2.242,2.242,0,0,0,.772-2.032,2.653,2.653,0,0,0-.527-1.862A4.8,4.8,0,0,0,126.519,86.522Z"/><path class="cls-1" d="M154.507,96.341V70.384q3.5-.337,9.856-.338,5.454,0,7.467,1.768t2.013,6.7q0,4.929-1.9,6.715t-6.828,1.787a39.3,39.3,0,0,1-4.89-.3v9.63Zm5.718-13.731h4.025a4.335,4.335,0,0,0,3.028-.865q.809-.827.809-3.235t-.809-3.236a4.233,4.233,0,0,0-3.028-.827l-4.025.038Z"/><path class="cls-1" d="M194.156,89.532h-8.915l-1.881,6.809h-5.869l7.486-24.452a1.794,1.794,0,0,1,.715-1.091,2.108,2.108,0,0,1,1.279-.414h5.417a1.844,1.844,0,0,1,1.994,1.5l7.486,24.452h-5.83Zm-1.241-4.439-2.182-7.937q-.452-1.881-.527-2.446h-1.015q-.075.378-.263,1.2c-.127.552-.226.966-.3,1.242l-2.181,7.937Z"/><path class="cls-1" d="M214.019,96.341H208.3V70.384h5.719Z"/><path class="cls-1" d="M244.94,70.384V94.272a1.812,1.812,0,0,1-2.031,2.069h-3.573a2.1,2.1,0,0,1-1.355-.395,3.9,3.9,0,0,1-.94-1.3l-6.809-13.843a23.946,23.946,0,0,1-1.58-4.026h-.414a30.069,30.069,0,0,1,.264,4.139V96.341h-5.455V72.453a1.829,1.829,0,0,1,2.069-2.069h3.5a2.1,2.1,0,0,1,1.355.395,3.906,3.906,0,0,1,.94,1.3l6.583,13.43q.941,1.881,1.881,4.176h.376q-.225-2.936-.226-4.364V70.384Z"/><path class="cls-1" d="M9.632,117.936v-4.421l-1.449,2.876h-1l-1.46-2.876v4.421H4.242v-7.585H5.7l1.981,4.1,1.971-4.1h1.459v7.585Z"/><path class="cls-1" d="M12.884,117.936v-7.585h1.481v7.585Z"/><path class="cls-1" d="M16.134,117.936v-7.585h1.481v6.264h3.441v1.321Z"/><path class="cls-1" d="M22.262,117.936v-7.585h1.48v6.264h3.441v1.321Z"/><path class="cls-1" d="M28.389,117.936v-7.585h5v1.321H29.869v1.779h2.994v1.321H29.869v1.843h3.516v1.321Z"/><path class="cls-1" d="M39.321,117.936l-3-4.655v4.655H34.836v-7.585h1.321l3,4.645v-4.645h1.481v7.585Z"/><path class="cls-1" d="M46.9,117.936l-3-4.655v4.655H42.412v-7.585h1.321l3,4.645v-4.645h1.481v7.585Z"/><path class="cls-1" d="M49.989,117.936v-7.585H51.47v7.585Z"/><path class="cls-1" d="M55.913,118a2.636,2.636,0,0,1-2.791-2.663v-4.986H54.6v4.932a1.318,1.318,0,1,0,2.631,0v-4.932H58.7v4.986A2.637,2.637,0,0,1,55.913,118Z"/><path class="cls-1" d="M65.748,117.936v-4.421L64.3,116.391h-1l-1.459-2.876v4.421H60.358v-7.585h1.459l1.982,4.1,1.971-4.1h1.459v7.585Z"/><path class="cls-1" d="M77.016,117.936l-3-4.655v4.655h-1.48v-7.585h1.321l3,4.645v-4.645h1.48v7.585Z"/><path class="cls-1" d="M82.783,118a2.636,2.636,0,0,1-2.791-2.663v-4.986h1.48v4.932a1.318,1.318,0,1,0,2.632,0v-4.932h1.469v4.986A2.636,2.636,0,0,1,82.783,118Z"/><path class="cls-1" d="M89.762,118a2.78,2.78,0,0,1-2.045-.831,2.195,2.195,0,0,1-.618-1.14,14.06,14.06,0,0,1,0-3.771,2.157,2.157,0,0,1,.618-1.14,2.784,2.784,0,0,1,2.045-.831,2.672,2.672,0,0,1,2.791,2.4h-1.5a1.249,1.249,0,0,0-1.278-1.075,1.171,1.171,0,0,0-.948.393c-.309.33-.373.671-.373,2.142s.064,1.811.373,2.141a1.172,1.172,0,0,0,.948.394,1.249,1.249,0,0,0,1.278-1.076h1.5A2.679,2.679,0,0,1,89.762,118Z"/><path class="cls-1" d="M93.834,117.936v-7.585h1.48v6.264h3.441v1.321Z"/><path class="cls-1" d="M99.961,117.936v-7.585h5v1.321h-3.515v1.779h2.993v1.321h-2.993v1.843h3.515v1.321Z"/><path class="cls-1" d="M109.082,118a2.637,2.637,0,0,1-2.791-2.663v-4.986h1.481v4.932a1.318,1.318,0,1,0,2.631,0v-4.932h1.47v4.986A2.637,2.637,0,0,1,109.082,118Z"/><path class="cls-1" d="M115.615,118a3.563,3.563,0,0,1-2.77-1l.958-.959a2.487,2.487,0,0,0,1.833.639c.873,0,1.342-.33,1.342-.938a.845.845,0,0,0-.235-.639,1.126,1.126,0,0,0-.67-.266l-.916-.128a2.577,2.577,0,0,1-1.471-.628,2.005,2.005,0,0,1-.543-1.491,2.337,2.337,0,0,1,2.642-2.3,3.251,3.251,0,0,1,2.45.884l-.937.927a2.113,2.113,0,0,0-1.556-.522c-.788,0-1.171.437-1.171.959a.733.733,0,0,0,.223.543,1.3,1.3,0,0,0,.7.3l.895.128a2.514,2.514,0,0,1,1.449.586,2.125,2.125,0,0,1,.586,1.609C118.427,117.169,117.2,118,115.615,118Z"/><path class="cls-1" d="M124.837,111.672v1.864h2.993v1.322h-2.993v3.078h-1.481v-7.585h5v1.321Z"/><path class="cls-1" d="M134.022,117.169a2.947,2.947,0,0,1-4.1,0c-.766-.767-.745-1.715-.745-3.025s-.021-2.259.745-3.026a2.947,2.947,0,0,1,4.1,0c.767.767.756,1.715.756,3.026S134.789,116.4,134.022,117.169Zm-1.1-5.156a1.233,1.233,0,0,0-.948-.4,1.254,1.254,0,0,0-.959.4c-.288.319-.362.671-.362,2.131s.074,1.811.362,2.13a1.255,1.255,0,0,0,.959.405,1.234,1.234,0,0,0,.948-.405c.287-.319.372-.671.372-2.13S133.212,112.332,132.925,112.013Z"/><path class="cls-1" d="M140.32,117.936l-1.481-3.025h-1.065v3.025h-1.481v-7.585h2.973a2.293,2.293,0,0,1,2.46,2.322,2.044,2.044,0,0,1-1.385,1.993l1.694,3.27Zm-1.151-6.264h-1.4v2h1.4a1,1,0,1,0,0-2Z"/><path class="cls-1" d="M149.692,111.672v6.264h-1.481v-6.264H146.23v-1.321h5.444v1.321Z"/><path class="cls-1" d="M156.927,117.936v-3.175H154.36v3.175h-1.481v-7.585h1.481v3.1h2.567v-3.1h1.481v7.585Z"/><path class="cls-1" d="M160.179,117.936v-7.585h5v1.321h-3.516v1.779h2.994v1.321h-2.994v1.843h3.516v1.321Z"/><path class="cls-1" d="M172.246,118a3.563,3.563,0,0,1-2.77-1l.958-.959a2.487,2.487,0,0,0,1.833.639c.873,0,1.342-.33,1.342-.938a.845.845,0,0,0-.235-.639,1.126,1.126,0,0,0-.67-.266l-.916-.128a2.577,2.577,0,0,1-1.471-.628,2.005,2.005,0,0,1-.543-1.491,2.337,2.337,0,0,1,2.642-2.3,3.251,3.251,0,0,1,2.45.884l-.937.927a2.113,2.113,0,0,0-1.556-.522c-.788,0-1.171.437-1.171.959a.733.733,0,0,0,.223.543,1.3,1.3,0,0,0,.7.3l.894.128a2.511,2.511,0,0,1,1.449.586,2.125,2.125,0,0,1,.586,1.609C175.058,117.169,173.833,118,172.246,118Z"/><path class="cls-1" d="M179.352,111.672v6.264h-1.48v-6.264H175.89v-1.321h5.444v1.321Z"/><path class="cls-1" d="M185.214,118a2.636,2.636,0,0,1-2.791-2.663v-4.986h1.48v4.932a1.318,1.318,0,1,0,2.632,0v-4.932H188v4.986A2.636,2.636,0,0,1,185.214,118Z"/><path class="cls-1" d="M194.4,117.212a2.762,2.762,0,0,1-2,.724h-2.738v-7.585H192.4a2.759,2.759,0,0,1,2,.725c.853.852.768,1.9.768,3.036S195.251,116.36,194.4,117.212Zm-1.033-5.071a1.32,1.32,0,0,0-1.108-.469h-1.118v4.943h1.118a1.32,1.32,0,0,0,1.108-.469c.277-.341.32-.884.32-2.034S193.642,112.482,193.365,112.141Z"/><path class="cls-1" d="M199.471,114.825v3.111H198v-3.111l-2.28-4.474h1.608l1.418,3.058,1.4-3.058h1.609Z"/><path class="cls-1" d="M210.793,117.169a2.947,2.947,0,0,1-4.1,0c-.767-.767-.745-1.715-.745-3.025s-.022-2.259.745-3.026a2.947,2.947,0,0,1,4.1,0c.767.767.756,1.715.756,3.026S211.56,116.4,210.793,117.169Zm-1.1-5.156a1.234,1.234,0,0,0-.949-.4,1.251,1.251,0,0,0-.958.4c-.288.319-.363.671-.363,2.131s.075,1.811.363,2.13a1.251,1.251,0,0,0,.958.405,1.234,1.234,0,0,0,.949-.405c.287-.319.372-.671.372-2.13S209.983,112.332,209.7,112.013Z"/><path class="cls-1" d="M214.545,111.672v1.864h2.993v1.322h-2.993v3.078h-1.481v-7.585h5v1.321Z"/><path class="cls-1" d="M225.823,115.081h-1.459v2.855h-1.481v-7.585h2.94a2.369,2.369,0,1,1,0,4.73Zm-.074-3.409h-1.385v2.078h1.385a1.041,1.041,0,1,0,0-2.078Z"/><path class="cls-1" d="M233.357,117.936l-.448-1.342h-2.695l-.458,1.342h-1.545l2.76-7.585h1.161l2.77,7.585Zm-1.768-5.347-.959,2.758h1.885Z"/><path class="cls-1" d="M235.841,117.936v-7.585h1.481v7.585Z"/><path class="cls-1" d="M243.576,117.936l-3-4.655v4.655h-1.48v-7.585h1.321l3,4.645v-4.645H244.9v7.585Z"/><path class="cls-2" d="M186.469,38.011A22.714,22.714,0,0,1,174.843,49.9c2.468-2.843,4.4-6.782,5.852-11.885h-3.253c-2.92,9.62-7.57,14.117-14.851,14.408-.252.01-.508.015-.766.015a60.882,60.882,0,0,1-14.072-1.7A21.069,21.069,0,0,0,150.335,46a14.585,14.585,0,0,1,1.459-2.832c.111.005.22.017.332.017a7.11,7.11,0,1,0-3.473-.915c-.41.728-.784,1.579-1.177,2.477-1.249,2.849-2.4,5.183-3.873,4.887-4.183-1.208-8.274-2.688-12.462-4.207-4.506-1.634-9.087-3.29-13.934-4.648v0l-.167-.042a85.182,85.182,0,0,0-9.433-2.088,52.679,52.679,0,0,0-10.294-.894A53.242,53.242,0,0,0,57.588,54.829l.124.114h4.122a49.426,49.426,0,0,1,14.715-9.85,25.809,25.809,0,0,0-6.109,9.763l.237.087h3.077c2.469-6.115,7.415-12.869,22.026-13.992.486-.037.979-.059,1.474-.073.594,0,1.19.014,1.786.038a68.32,68.32,0,0,1,8.1.822c3.082.542,6.133,1.268,9,1.991,4.843,1.343,9.428,3,13.937,4.637,4.181,1.516,8.424,3.052,12.845,4.315v.005c.015,0,.03.005.045.008a67.95,67.95,0,0,0,18.86,2.862c.358,0,.7-.017,1.047-.026,19-.453,25.289-13.028,26.925-17.519Zm-38.315-1.917a3.972,3.972,0,1,1,3.972,3.972A3.977,3.977,0,0,1,148.154,36.094Z"/></svg>