<svg id="Capa_1" data-name="Capa 1" xmlns="http://www.w3.org/2000/svg" viewBox="0 0 250 150"><defs><style>.cls-1{fill:#0064ac;}.cls-2{fill:#e4363e;}.cls-3{fill:#fff;}.cls-4{fill:#595959;}.cls-5{fill:#e6313c;}.cls-6{fill:#076db4;}</style></defs><title>Nucleo Milenio</title><rect class="cls-1" x="6" y="34.039" width="38.403" height="85.114"/><rect class="cls-2" x="44.403" y="34.039" width="55.336" height="85.114"/><path class="cls-3" d="M51.781,114.61a3.471,3.471,0,0,1-1.556.385c-1.247,0-1.833-.878-1.833-2.2,0-1.265.629-2.122,1.933-2.122a2.347,2.347,0,0,1,1.369.369l-.346.612a1.858,1.858,0,0,0-1.017-.266c-.747,0-1.087.568-1.087,1.4,0,.982.358,1.519,1.061,1.519a1.761,1.761,0,0,0,.728-.148v-.765H50.46l-.044-.6h1.365Z"/><path class="cls-3" d="M55.154,113.415c0,1.029-.52,1.578-1.42,1.578s-1.42-.543-1.42-1.578a1.427,1.427,0,1,1,2.84,0m-.828,0c0-.729-.217-.983-.592-.983s-.586.26-.586.983c0,.7.19.986.586.986s.592-.265.592-.986"/><path class="cls-3" d="M56.507,112.216a1.062,1.062,0,0,1,.8-.37c.71,0,1.222.507,1.222,1.568,0,1.043-.617,1.58-1.321,1.58a.994.994,0,0,1-.876-.427l-.148.364h-.431v-4.257h.808v1.055Zm.055,1.877a.727.727,0,0,0,.549.308c.351,0,.612-.258.612-.987s-.229-.976-.6-.976a.856.856,0,0,0-.562.241Z"/><path class="cls-3" d="M59.389,114.931V112.5l-.346-.074v-.517h1.148v3.022Zm-.024-4.257h.815v.733h-.815Z"/><path class="cls-3" d="M61.618,113.636a.687.687,0,0,0,.778.747,2.064,2.064,0,0,0,.883-.26l.154.569a2.434,2.434,0,0,1-1.135.3,1.4,1.4,0,0,1-1.494-1.58c0-.932.445-1.568,1.413-1.568.914,0,1.277.679,1.277,1.439v.351Zm.562-1.2c-.4,0-.562.364-.562.722h1.1c0-.388-.123-.722-.543-.722"/><path class="cls-3" d="M65.823,112.58a1.351,1.351,0,0,0-.376-.049.876.876,0,0,0-.544.2v2.195h-.8v-3.022h.562c.031.141.062.271.087.406h.024a.809.809,0,0,1,.721-.463,1.276,1.276,0,0,1,.346.044c-.006.228-.006.457-.018.684"/><path class="cls-3" d="M68.188,114.932v-1.8c0-.457-.174-.672-.542-.672a.987.987,0,0,0-.532.185v2.283h-.808v-3.024h.555l.124.346a1.249,1.249,0,0,1,.957-.408c.765,0,1.067.451,1.067,1.216v1.87Z"/><path class="cls-3" d="M72.387,113.415c0,1.029-.52,1.578-1.421,1.578s-1.419-.543-1.419-1.578a1.427,1.427,0,1,1,2.84,0m-.827,0c0-.729-.217-.983-.594-.983s-.584.26-.584.983c0,.7.19.986.584.986s.594-.265.594-.986"/><path class="cls-3" d="M76.309,112.143a1.81,1.81,0,0,1-.076-.556v-.913h.8v4.257h-.655l-.093-.332a.981.981,0,0,1-.8.395c-.686,0-1.235-.493-1.235-1.574,0-1,.568-1.574,1.3-1.574a.982.982,0,0,1,.754.3m-.076.456a1.076,1.076,0,0,0-.549-.148c-.381,0-.623.26-.623.963,0,.722.23.993.613.993a.788.788,0,0,0,.559-.259Z"/><path class="cls-3" d="M78.463,113.636a.686.686,0,0,0,.777.747,2.081,2.081,0,0,0,.885-.26l.153.569a2.441,2.441,0,0,1-1.135.3,1.405,1.405,0,0,1-1.494-1.58c0-.932.444-1.568,1.413-1.568.914,0,1.277.679,1.277,1.439v.351Zm.562-1.2c-.4,0-.562.364-.562.722h1.105c0-.388-.123-.722-.543-.722"/><path class="cls-3" d="M84.014,114.994c-1.172,0-1.8-.789-1.8-2.178,0-1.279.618-2.141,1.8-2.141a2.617,2.617,0,0,1,1.42.35l-.31.642a1.79,1.79,0,0,0-1.024-.284c-.692,0-1.036.513-1.036,1.425,0,.964.344,1.476,1.023,1.476a1.934,1.934,0,0,0,1.1-.382l.259.648a2.462,2.462,0,0,1-1.432.444"/><path class="cls-3" d="M86,114.932v-4.258h.809v1.117a1.842,1.842,0,0,1-.079.468,1.042,1.042,0,0,1,.856-.413c.872,0,1.118.451,1.118,1.216v1.87h-.82v-1.8a.307.307,0,0,0-.045-.185.452.452,0,0,0-.5-.487.987.987,0,0,0-.533.185v2.283Z"/><path class="cls-3" d="M89.609,114.931V112.5l-.347-.074v-.517h1.149v3.022Zm-.025-4.257H90.4v.733h-.815Z"/><path class="cls-3" d="M91.147,114.13v-3.456h.795v3.412c0,.254.154.291.487.291v.568a2.535,2.535,0,0,1-.443.049c-.617,0-.839-.327-.839-.864"/><path class="cls-3" d="M93.654,113.636a.686.686,0,0,0,.776.747,2.056,2.056,0,0,0,.883-.26l.154.569a2.433,2.433,0,0,1-1.134.3,1.406,1.406,0,0,1-1.5-1.58c0-.932.446-1.568,1.414-1.568.914,0,1.278.679,1.278,1.439v.351Zm.561-1.2c-.4,0-.561.364-.561.722h1.1c0-.388-.124-.722-.543-.722"/><path class="cls-3" d="M26,45.716a.376.376,0,0,0,.119-.511c-.069-.135-.249-.149-.171-.165.963-.226,1.478-1.631,1.448-2.17a1.915,1.915,0,0,0,2.411-.1,1.72,1.72,0,0,0-.118-2.477,1.569,1.569,0,0,0-1.767.025.9.9,0,0,0-.735-.462,1.771,1.771,0,0,0-.364-1.139,1.846,1.846,0,0,0-2.325.009,1.635,1.635,0,0,0-2.164,1.728,2.826,2.826,0,0,0-1.436-.241,1.676,1.676,0,0,0-.95.544,2.361,2.361,0,0,0-.212.335,1.591,1.591,0,0,0,.545,2.041,2.553,2.553,0,0,0,1.477.218,1.1,1.1,0,0,0,.6-.334c.063-.064.109-.167.2-.168a1.191,1.191,0,0,0,.762,1.214c0,.035.016.069.025.121a1.1,1.1,0,0,0,.943.95c-.3.182-.172.444-.1.581a2.637,2.637,0,0,1,1.809,0"/><path class="cls-3" d="M28.287,48.748a3.013,3.013,0,0,1,.686-1.795.277.277,0,0,0,.077-.216.216.216,0,0,0-.1-.158c-.194-.131-.63-.4-.63-.4l-.035-.031h-.038c-.047,0-.083.028-.143.073a1.122,1.122,0,0,1-.737.266,1.654,1.654,0,0,1-.216-.016,2.448,2.448,0,0,1-.547-.2c-.112-.059-.252-.12-.309-.146l-.024-.009a2.856,2.856,0,0,0-2.346,0l-.027.009-.14.064-.342.162a1.537,1.537,0,0,1-.373.123,1.617,1.617,0,0,1-.216.016,1.127,1.127,0,0,1-.737-.266c-.06-.045-.1-.073-.142-.073l-.035,0-.02.014s-.446.275-.632.4a.236.236,0,0,0-.114.168.263.263,0,0,0,.076.215,3.014,3.014,0,0,1,.686,1.81,2.65,2.65,0,0,1-.45,1.616,1.9,1.9,0,0,0,1.859,2.855c.111,0,1.115.018,1.461.661.015.025.177.282.24.408l.079.154.077-.154c.065-.125.224-.379.247-.415.34-.636,1.344-.654,1.457-.654a1.893,1.893,0,0,0,1.856-2.855,2.682,2.682,0,0,1-.448-1.631m-.526-.009L26.005,50l.672,1.985L24.992,50.7l-1.684,1.277L23.979,50l-1.755-1.257h2.16l.608-2.011.608,2.011h2.161Z"/><path class="cls-3" d="M40.031,57.09c-.221-.266-.8-.135-.8-.135a.863.863,0,0,0-.549-1.181.749.749,0,0,0-.643.066l-.01.007,0,.006a.5.5,0,0,0-.062.05.448.448,0,0,0,.324.76.46.46,0,0,0,.258-.082.451.451,0,0,0,.178-.266.442.442,0,0,1,.165.21c.251.8-.644,1.081-.644,1.081a3.5,3.5,0,0,1-3.184-.427l.346-.185a.781.781,0,0,1,.313-.068.258.258,0,0,0-.007.059.392.392,0,0,0,.784,0,.368.368,0,0,0-.079-.24c-.232-.349-1.029-.118-1.029-.118a1.439,1.439,0,0,0,.028-1.126,1.08,1.08,0,0,0-1.239-.52.534.534,0,0,0-.366.362c-.119.6.377.65.377.65.358.017.361-.271.361-.271.047-.279-.348-.293-.348-.293.332-.586,1.383.375.7,1.222-.072.085-.138.028-.138.028a13.976,13.976,0,0,1-2.14-1.233c-.029-.335-.322-.5-.266-.594.048-.019.222.068.32-.078.035-.053.115-.583.181-.959a3.469,3.469,0,0,0,2.2.286.251.251,0,0,0,.173-.25c.018-.415-1.056-2.853-1.086-3.713.508.251.821-.533.913-.772.682.312.917,6.639,1.442,6.852.263.107.366-.324.39-.4a20.782,20.782,0,0,0,.818-6.489,17.776,17.776,0,0,0-.549-3.923c-.214-.731-.627-2.223-1.593-2.427a.687.687,0,0,0-.787.7c.008.328.234.487.134.809a2.779,2.779,0,0,0-.3.675c-.057.235.151.331.084.581-.3-.046-.457.222-.938.1.313-.145.318-1.037-.067-1.189-.057-.025-.121-.033-.132-.085a1.222,1.222,0,0,0,.185-.259,1.194,1.194,0,0,0,.044-1.15c.158.014.324-.277.347-.51l0,0v-.019h0a1.071,1.071,0,0,1,.084-.456.117.117,0,1,0-.212-.1c-.094.2-.32.088-.224-.113a.121.121,0,0,0-.055-.159.119.119,0,0,0-.156.058c-.091.192-.31.085-.22-.108a.116.116,0,1,0-.209-.1c-.094.2-.322.088-.227-.109a.124.124,0,0,0-.054-.163.121.121,0,0,0-.155.059.957.957,0,0,1-.276.381c-.214.038-.157.284-.132.45a.576.576,0,0,0-.711.491h-.045c-.331.008-.647.178-.622.483a.53.53,0,0,0,.291.39c.035-.012-.018-.184.154-.194a.447.447,0,0,1,.417.273c.035.17-.1.578.434.638,0,0,0,.083-.011.17a1.517,1.517,0,0,0-.436.006c-.34.055-.807.246-.92.584a.669.669,0,0,0-.023.256c.008.069.072.155.063.24a.439.439,0,0,1-.106.153,1.048,1.048,0,0,1-.637.3.783.783,0,0,1-.61-.291c-.342-.461.1-1.258.094-1.555-.019-.79-1.017-.319-1.413-.113a3.89,3.89,0,0,0-1.162,1.037,3.326,3.326,0,0,0-.465.714c-.018.042-.056.048-.1.047a2.4,2.4,0,0,0,.841.228,1.342,1.342,0,0,0,.946-.254.226.226,0,0,1,.136-.05.22.22,0,0,1,.152.066c0,.005.054.045.114.093l.124.1.072.057.208.161c.014.01.025.02.04.03l.223.171c.081.061.159.118.2.148l0,0a.1.1,0,0,1,.035.056.152.152,0,0,1-.039.1s-.044.048-.106.129a4.1,4.1,0,0,0-.526.9,1.213,1.213,0,0,0,.948.715.5.5,0,0,0,.558-.406c.008.005.025.029.029.031.043-.039.24,1.03.5,1.321-.244.113-.622.5-.418,1.554-.2-.162-.57-.442-.747-.626a1.138,1.138,0,0,0-.912-.784,4.526,4.526,0,0,0,.4.895,2.563,2.563,0,0,1,.254,1.441c.25-.257.212-.961.212-.961A.238.238,0,0,1,29.805,51c.051,0,.3.485.734.587a5.584,5.584,0,0,0,1.814,1.965c-.012.233.016.789-.135.789-.482.108-.926-.218-1.352-.2l-.074-.034c-1.829-.882-4.241,1.01-4.644,1.377-.211.2-.456-.071-.456-.071a.673.673,0,0,0-1.037,0s-.246.266-.458.071c-.38-.348-2.566-2.041-4.353-1.463-.005-.1-.246-.148-.314-.173a1.907,1.907,0,0,1-.355-.2,2.44,2.44,0,0,0-.732-.063.921.921,0,0,1-.283-.1,2.744,2.744,0,0,1-.8-.65c-.03-.042-.1-.139-.115-.156a1.182,1.182,0,0,1-.2-.379,2.758,2.758,0,0,1,.106-1.088c.039-.264.029-.282.054-.565a3.364,3.364,0,0,0,1.862-1.694c.026-.036.1-.181.1-.181a1.277,1.277,0,0,0,.154.014c.455,0,.76-.25,1.256-.19,0,.028.067.237.389.368a1.97,1.97,0,0,0,.157.846c.027.044.061.082.085.118a3.367,3.367,0,0,0,.274-1.176.261.261,0,0,1-.037-.1,1.056,1.056,0,0,0-.606-.844,3.028,3.028,0,0,1-.367-.168,1.346,1.346,0,0,1-.48-.478,1.485,1.485,0,0,0,.12-.132,2.8,2.8,0,0,0,.591-1.355c.243-.332.916-.2,1.172-.155a.524.524,0,0,1,.23.074c.073.049.089.163.189.207a.777.777,0,0,0,.356,0,.893.893,0,0,1,.107.2.725.725,0,0,0,.1.133,2.547,2.547,0,0,0,.915-.262.181.181,0,0,1-.05-.042,1.053,1.053,0,0,0-.552-.41c-.251-.042-.3-.266-.543-.314a.929.929,0,0,0-.346-.023,6.1,6.1,0,0,1-1.4-.168c-.472-.032-.487.29-.66.556A1.641,1.641,0,0,1,20,45.76c-.131.126-.282.131-.44.25l-.073-.2a1.632,1.632,0,0,0-.211-.493,1.686,1.686,0,0,0-1.119-.845.611.611,0,0,1-.2-.108.1.1,0,0,1,0-.168c.162-.094.442-.06.627-.145.455-.212.293-.6.116-.628a4.224,4.224,0,0,1-.722-.2c-.11-.07-.3-.417-.482-.5-.2-.053-.131-.38-.315-.45a.6.6,0,0,0-.325.09c-.008-.068-.057-.438-.261-.56-.153-.086-.208.05-.2.138s.224.188.264.537c-.037.024-.072.044-.11.071a.691.691,0,0,0-.243-.456c-.151-.088-.208.048-.2.136s.2.174.257.468c-.046.038-.088.076-.131.115-.305-.084-.387-.292-.464-.3s-.225.025-.154.185a.71.71,0,0,0,.442.291c-.031.033-.057.067-.084.1-.353-.072-.44-.3-.518-.32s-.229.028-.157.187c.1.225.5.312.543.319a.384.384,0,0,0-.081.247c-.276-.032-.765.116-.672.441.091.066.416-.2.716-.052a1.088,1.088,0,0,0,.585.376c.111.088.127.246.179.388a3.181,3.181,0,0,0,.429.713c.168.257.345.527.523.752a.466.466,0,0,1,.03.22,6.867,6.867,0,0,1-1.057.93c-.251.236-2.622,2.041-2.92,2.827a1.679,1.679,0,0,0-.094.637c-.145.077-.462.2-.562.061-.184-.254.174-.447.1-.693a.189.189,0,0,0-.264-.095.8.8,0,0,0,.088,1.344c.411.171.469-.272.787-.093.076.044.828.715.7,1.247a.6.6,0,0,1-.052.124c-.164.2-.439.363-.627.555-.391.248.372,1.808.309,2.609-.045.3.252.268.434.745a.548.548,0,0,0-.46.19.352.352,0,0,0-.078.24.391.391,0,0,0,.781,0,.265.265,0,0,0-.005-.059.779.779,0,0,1,.314.068l.345.185a3.5,3.5,0,0,1-3.183.427s-.9-.286-.644-1.081a.435.435,0,0,1,.165-.21.447.447,0,0,0,.178.266.455.455,0,0,0,.258.082.45.45,0,0,0,.323-.76.387.387,0,0,0-.062-.05l0,0-.008-.007a.755.755,0,0,0-.648-.068.863.863,0,0,0-.548,1.181s-.583-.131-.8.135a.332.332,0,0,0-.069.221v.009a.476.476,0,0,0,.062.19.337.337,0,0,0,.54.02l0,0c.024-.03.095-.071.2.038,1.309,1.366,3.445.8,4.629-.113a7.206,7.206,0,0,1,1.388-1.065c.285.123.587.213.881.32a2.852,2.852,0,0,0,.541,1.741.64.64,0,0,1-.9.278.467.467,0,0,1-.062-.708s.238-.2.34.05a.23.23,0,0,0-.219.229.228.228,0,0,0,.456.013.563.563,0,0,0-.188-.5.59.59,0,0,0-.518-.14c-.5.077-.778,1.117.2,1.547,0,0,.771.352,1.169-.224,0,0-.007-.083.143.06a3.086,3.086,0,0,0,3.363.024,4.19,4.19,0,0,1,.384-.212.567.567,0,1,0,.667-.574,1.2,1.2,0,0,0-.905.214,3.92,3.92,0,0,1-.526.3,3.244,3.244,0,0,0,.385-1.122c.8.088,1.611.146,2.457.164a2.386,2.386,0,0,1-.14.776s-.3.123-.3.334c0,0-.034.153.231.366a1.486,1.486,0,0,1,.25.38s.015.231.334.231a.267.267,0,0,0,.06-.007.3.3,0,0,0,.061.007c.318,0,.334-.231.334-.231a1.486,1.486,0,0,1,.25-.38c.264-.213.231-.366.231-.366,0-.211-.306-.334-.306-.334a2.409,2.409,0,0,1-.138-.775c.845-.019,1.661-.076,2.455-.163a3.269,3.269,0,0,0,.386,1.12,3.983,3.983,0,0,1-.526-.3,1.2,1.2,0,0,0-.905-.214.568.568,0,1,0,.666.574,4.225,4.225,0,0,1,.386.212,3.086,3.086,0,0,0,3.363-.024c.15-.143.143-.06.143-.06.4.576,1.17.224,1.17.224.979-.43.7-1.47.2-1.547a.6.6,0,0,0-.522.14.563.563,0,0,0-.186.5A.228.228,0,0,0,32.7,58.3a.23.23,0,0,0-.218-.229c.1-.247.338-.05.338-.05a.466.466,0,0,1-.063.708.64.64,0,0,1-.9-.278A2.846,2.846,0,0,0,32.4,56.71c.3-.105.6-.2.885-.321a7.24,7.24,0,0,1,1.385,1.063c1.184.915,3.318,1.479,4.629.113.1-.109.176-.068.2-.038l0,0a.338.338,0,0,0,.541-.02.492.492,0,0,0,.062-.19v-.009a.332.332,0,0,0-.069-.221M15.59,56.679s-.064.057-.136-.028c-.689-.847.363-1.808.7-1.222,0,0-.4.014-.353.293,0,0,.008.288.364.271,0,0,.5-.052.378-.65a.539.539,0,0,0-.368-.362,1.079,1.079,0,0,0-1.238.52,1.434,1.434,0,0,0-.087.456.738.738,0,0,0-.338-.165,4.263,4.263,0,0,1-.266-2.271,2.3,2.3,0,0,0,1.8-1.688.736.736,0,0,1,.44.53c.022.18-.062.367.043.513a2.98,2.98,0,0,0,.712.556,14.175,14.175,0,0,0,1.171.825c.139.029.225-.074.345-.053a.267.267,0,0,1,.106.066,1.356,1.356,0,0,0,.17.141,8.956,8.956,0,0,0-1.03.8,8.416,8.416,0,0,1-2.412,1.464m3.267.945a1.939,1.939,0,0,1-.151.444,2.923,2.923,0,0,1-.315-1.2c.22.071.437.149.663.212a3.487,3.487,0,0,0-.2.546m2.6,1.239a2.284,2.284,0,0,1-2.342-.437,5.314,5.314,0,0,1,.326-1.257,20.051,20.051,0,0,0,2.409.453c-.057.528-.172,1.209-.393,1.241m-1.372-2.7a1.56,1.56,0,0,1,1.074-.442.781.781,0,0,1,.732.768c-.674-.095-1.286-.206-1.806-.326m1.384-.879a3.085,3.085,0,0,0-1.741.791c-.417-.1-.793-.209-1.087-.3a2.03,2.03,0,0,1,.214-.348,2.885,2.885,0,0,1,3.287-.625c.042.015-.093.355-.673.484m.967,1.28c.089-.841.151-1.551.456-1.548a.515.515,0,0,1,.37.213c.265.367.979.807,1.3,1.473-.763-.019-1.484-.063-2.131-.138m3.339.138c.326-.666,1.04-1.106,1.306-1.473a.513.513,0,0,1,.37-.213c.3,0,.368.707.456,1.548-.647.075-1.368.12-2.132.138M28.2,54.8a2.883,2.883,0,0,1,3.286.625,2.125,2.125,0,0,1,.215.351c-.293.093-.67.2-1.086.3a3.086,3.086,0,0,0-1.742-.792c-.58-.129-.717-.469-.673-.484m.983.921a1.564,1.564,0,0,1,1.076.444c-.522.119-1.134.23-1.809.325.113-.778.733-.769.733-.769m-.3,3.14c-.22-.032-.336-.711-.392-1.239a20.392,20.392,0,0,0,2.41-.453,5.337,5.337,0,0,1,.325,1.255,2.286,2.286,0,0,1-2.343.437m2.754-.8a1.952,1.952,0,0,1-.152-.444,3.552,3.552,0,0,0-.2-.543c.225-.063.442-.139.662-.211a2.931,2.931,0,0,1-.314,1.2"/><path class="cls-3" d="M49.187,43.487h-.981l1.4-5.174H51.28l1.356,5.174H51.51l-.269-1.166H49.462ZM50.215,39.2l-.568,2.315h1.41L50.529,39.2Z"/><path class="cls-3" d="M56.515,39.731l-.015.743a2.775,2.775,0,0,1-.706-.13,1.018,1.018,0,0,1,.376.59,1.42,1.42,0,0,1-1.547,1.288,2.18,2.18,0,0,1-.484-.069c-.115.039-.184.108-.184.207,0,.407,2.384-.069,2.384,1.342,0,.881-.843,1.364-1.786,1.364-.79,0-1.587-.344-1.587-1.035,0-.483.383-.735,1-.828-.469-.053-.936-.2-.936-.636,0-.314.291-.544.712-.574a1.157,1.157,0,0,1-.675-1.059,1.38,1.38,0,0,1,1.549-1.28c.406,0,1.249.069,1.9.077m-2.046,3.541a.55.55,0,0,0-.575.552c0,.33.3.567.706.567.451,0,.75-.229.75-.62,0-.33-.292-.453-.881-.5m.812-2.345c0-.445-.375-.56-.667-.56s-.674.115-.674.56c0,.475.36.59.674.59s.667-.115.667-.59"/><path class="cls-3" d="M57.949,41.877a.852.852,0,0,0,.967.927,2.509,2.509,0,0,0,1.1-.314l.192.706a3.1,3.1,0,0,1-1.419.367A1.745,1.745,0,0,1,56.946,41.6c0-1.158.559-1.948,1.762-1.948,1.134,0,1.579.844,1.579,1.786v.437Zm.706-1.487c-.5,0-.706.453-.706.9h1.372c0-.483-.146-.9-.666-.9"/><path class="cls-3" d="M63.3,43.487V41.256c0-.567-.214-.835-.675-.835a1.207,1.207,0,0,0-.658.23v2.836h-1V39.73h.69l.153.43a1.563,1.563,0,0,1,1.188-.506c.951,0,1.326.56,1.326,1.51v2.323Z"/><path class="cls-3" d="M68.052,43.234a2.907,2.907,0,0,1-1.287.33c-1.119,0-1.794-.636-1.794-1.955a1.726,1.726,0,0,1,1.786-1.955,2.54,2.54,0,0,1,1.288.307l-.26.683a1.862,1.862,0,0,0-.943-.23c-.521,0-.851.352-.851,1.2s.314,1.2.858,1.2a2.188,2.188,0,0,0,1.019-.284Z"/><path class="cls-3" d="M68.95,43.486V40.452l-.437-.092v-.629h1.433v3.755ZM68.919,38.2h1.012v.912H68.919Z"/><path class="cls-3" d="M73.1,43.487l-.137-.445a1.351,1.351,0,0,1-1.1.522,1.165,1.165,0,0,1-1.256-1.2c0-.7.513-1.111,1.417-1.111h.79v-.192c0-.483-.276-.636-.659-.636a2.716,2.716,0,0,0-1.127.253l-.253-.713a3.791,3.791,0,0,1,1.479-.307c1.067,0,1.526.491,1.526,1.449v2.384Zm-.283-1.64h-.621c-.414,0-.6.2-.6.483a.5.5,0,0,0,.559.551,1.119,1.119,0,0,0,.667-.253Z"/><polygon class="cls-3" points="51.096 51.454 49.486 47.383 49.456 47.383 49.524 51.454 48.62 51.454 48.62 46.279 50.161 46.279 51.793 50.435 51.824 50.435 51.755 46.279 52.683 46.279 52.683 51.454 51.096 51.454"/><path class="cls-3" d="M55.887,51.453l-.138-.444a1.347,1.347,0,0,1-1.1.521,1.165,1.165,0,0,1-1.257-1.2c0-.7.513-1.111,1.418-1.111H55.6v-.192c0-.483-.276-.637-.659-.637a2.7,2.7,0,0,0-1.127.254l-.253-.713a3.8,3.8,0,0,1,1.48-.307c1.066,0,1.525.491,1.525,1.449v2.383Zm-.284-1.64h-.621c-.413,0-.6.2-.6.483a.5.5,0,0,0,.559.552A1.124,1.124,0,0,0,55.6,50.6Z"/><path class="cls-3" d="M60.356,51.2a2.907,2.907,0,0,1-1.287.33c-1.12,0-1.8-.637-1.8-1.955a1.726,1.726,0,0,1,1.786-1.955,2.527,2.527,0,0,1,1.288.307l-.26.682a1.872,1.872,0,0,0-.943-.23c-.521,0-.851.353-.851,1.2s.314,1.2.858,1.2a2.192,2.192,0,0,0,1.02-.284Z"/><path class="cls-3" d="M61.253,51.453V48.418l-.436-.091V47.7H62.25v3.755Zm-.031-5.288h1.012v.912H61.222Z"/><path class="cls-3" d="M66.458,49.568c0,1.28-.644,1.962-1.763,1.962s-1.763-.674-1.763-1.962a1.772,1.772,0,1,1,3.526,0m-1.027,0c0-.905-.268-1.219-.736-1.219s-.728.322-.728,1.219c0,.874.237,1.227.728,1.227s.736-.33.736-1.227"/><path class="cls-3" d="M69.463,51.454V49.223c0-.567-.215-.836-.675-.836a1.211,1.211,0,0,0-.659.231v2.836h-1V47.7h.69l.153.43a1.56,1.56,0,0,1,1.189-.506c.95,0,1.326.56,1.326,1.51v2.323Z"/><path class="cls-3" d="M73.541,51.453l-.137-.444a1.348,1.348,0,0,1-1.1.521,1.165,1.165,0,0,1-1.257-1.2c0-.7.514-1.111,1.419-1.111h.789v-.192c0-.483-.276-.637-.659-.637a2.7,2.7,0,0,0-1.128.254l-.252-.713a3.791,3.791,0,0,1,1.479-.307c1.066,0,1.525.491,1.525,1.449v2.383Zm-.283-1.64h-.621c-.413,0-.606.2-.606.483a.5.5,0,0,0,.559.552,1.13,1.13,0,0,0,.668-.252Z"/><path class="cls-3" d="M75.028,50.457V46.165h.99V50.4c0,.314.191.361.6.361v.7a3.135,3.135,0,0,1-.551.061c-.766,0-1.043-.406-1.043-1.073"/><path class="cls-3" d="M81.238,47.989a2.3,2.3,0,0,1-.093-.69V46.165h1v5.289H81.33l-.115-.415a1.218,1.218,0,0,1-1,.491c-.852,0-1.534-.613-1.534-1.955,0-1.241.7-1.954,1.618-1.954a1.222,1.222,0,0,1,.935.368m-.093.567a1.338,1.338,0,0,0-.681-.184c-.475,0-.774.323-.774,1.2,0,.9.283,1.234.759,1.234a.989.989,0,0,0,.7-.322Z"/><path class="cls-3" d="M83.829,49.844a.852.852,0,0,0,.966.927,2.509,2.509,0,0,0,1.1-.314l.192.7a3.076,3.076,0,0,1-1.418.368,1.745,1.745,0,0,1-1.847-1.962c0-1.157.56-1.947,1.763-1.947,1.134,0,1.579.843,1.579,1.786v.437Zm.705-1.487c-.5,0-.705.452-.705.9H85.2c0-.482-.146-.9-.667-.9"/><rect class="cls-3" x="48.727" y="54.246" width="1.003" height="5.174"/><path class="cls-3" d="M53.058,59.42V57.19c0-.568-.215-.836-.675-.836a1.211,1.211,0,0,0-.659.231V59.42h-1V55.664h.69l.154.43a1.553,1.553,0,0,1,1.188-.507c.951,0,1.326.56,1.326,1.511V59.42Z"/><polygon class="cls-3" points="57.014 59.42 55.55 59.42 54.423 55.664 55.55 55.664 56.339 58.814 56.37 58.814 57.152 55.664 58.164 55.664 57.014 59.42"/><path class="cls-3" d="M59.451,57.81a.853.853,0,0,0,.967.928,2.505,2.505,0,0,0,1.1-.314l.193.7a3.085,3.085,0,0,1-1.42.368,1.746,1.746,0,0,1-1.847-1.963c0-1.157.56-1.947,1.763-1.947,1.135,0,1.579.843,1.579,1.787v.436Zm.706-1.486c-.5,0-.706.452-.706.9h1.373c0-.483-.146-.9-.667-.9"/><path class="cls-3" d="M63.338,56.653c0,.583,1.626.406,1.626,1.633,0,.682-.506,1.211-1.48,1.211a2.4,2.4,0,0,1-1.127-.276l.207-.7a1.745,1.745,0,0,0,.89.261c.329,0,.551-.184.551-.414,0-.674-1.6-.452-1.6-1.733,0-.551.421-1.05,1.433-1.05a2.983,2.983,0,0,1,1.057.185l-.138.728a2.232,2.232,0,0,0-.9-.192c-.345,0-.514.13-.514.345"/><path class="cls-3" d="M67.064,59.5c-.667,0-1.1-.315-1.1-1.258V56.378H65.4v-.714h.56v-.651l.988-.322v.973h1v.714h-1v1.839a.376.376,0,0,0,.4.429,1.357,1.357,0,0,0,.575-.138l.154.735a2.15,2.15,0,0,1-1.012.254"/><path class="cls-3" d="M68.95,59.42V56.385l-.437-.092v-.629h1.433V59.42Zm-.031-5.289h1.012v.913H68.919Z"/><path class="cls-3" d="M74.185,55.664l-.015.743a2.69,2.69,0,0,1-.706-.13,1.024,1.024,0,0,1,.377.591,1.422,1.422,0,0,1-1.549,1.287,2.163,2.163,0,0,1-.482-.069c-.116.039-.185.108-.185.208,0,.406,2.384-.069,2.384,1.341,0,.881-.843,1.365-1.786,1.365-.79,0-1.587-.345-1.587-1.035,0-.483.384-.736,1-.829-.467-.053-.935-.2-.935-.635,0-.315.292-.545.713-.575a1.154,1.154,0,0,1-.674-1.058,1.379,1.379,0,0,1,1.548-1.281c.406,0,1.249.069,1.9.077m-2.046,3.541a.55.55,0,0,0-.575.552c0,.33.3.568.705.568.452,0,.751-.23.751-.621,0-.329-.291-.452-.881-.5m.812-2.345c0-.444-.375-.56-.667-.56s-.675.116-.675.56c0,.475.361.591.675.591s.667-.116.667-.591"/><path class="cls-3" d="M77.075,59.42l-.137-.444a1.352,1.352,0,0,1-1.1.521,1.165,1.165,0,0,1-1.257-1.2c0-.7.513-1.112,1.419-1.112h.789V56.99c0-.483-.277-.636-.659-.636a2.721,2.721,0,0,0-1.128.253l-.252-.712a3.772,3.772,0,0,1,1.479-.308c1.066,0,1.525.491,1.525,1.449V59.42Zm-.283-1.64H76.17c-.413,0-.605.2-.605.483a.5.5,0,0,0,.56.551,1.12,1.12,0,0,0,.667-.252Z"/><path class="cls-3" d="M81.545,59.167a2.912,2.912,0,0,1-1.288.33c-1.119,0-1.794-.636-1.794-1.955a1.726,1.726,0,0,1,1.786-1.955,2.536,2.536,0,0,1,1.287.307l-.259.682a1.885,1.885,0,0,0-.944-.229c-.52,0-.85.352-.85,1.2s.314,1.2.858,1.2a2.2,2.2,0,0,0,1.02-.284Z"/><path class="cls-3" d="M82.441,59.42V56.385l-.436-.092v-.629h1.433V59.42Zm-.03-5.289h1.011v.913H82.411Z"/><path class="cls-3" d="M87.646,57.534c0,1.281-.644,1.963-1.763,1.963s-1.763-.675-1.763-1.963a1.772,1.772,0,1,1,3.526,0m-2.69-2.452-.1-.575,1.939-.544.13.736Zm1.664,2.452c0-.9-.269-1.218-.737-1.218s-.727.322-.727,1.218c0,.875.236,1.227.727,1.227s.737-.329.737-1.227"/><path class="cls-3" d="M90.651,59.42V57.19c0-.568-.215-.836-.674-.836a1.214,1.214,0,0,0-.66.231V59.42h-1V55.664H89l.154.43a1.556,1.556,0,0,1,1.188-.507c.951,0,1.326.56,1.326,1.511V59.42Z"/><path class="cls-3" d="M49.992,67.3l-.7.122-1.119-3.794H49.3l.8,3.15h.015l.8-3.15h1l-1.157,3.848c-.322,1.081-.866,1.479-1.641,1.479a1.949,1.949,0,0,1-1.058-.375l.314-.683h.093a1.257,1.257,0,0,0,.7.269c.4,0,.66-.276.8-.759Z"/><path class="cls-3" d="M55.872,67.464a6.437,6.437,0,0,1-1.84-.277V62.213h1.725c1.5,0,2.453.613,2.453,2.537,0,1.679-.728,2.714-2.338,2.714m-.154-4.439h-.681v3.488a3.45,3.45,0,0,0,.888.108c.675,0,1.219-.392,1.219-1.879,0-1.249-.391-1.717-1.426-1.717"/><path class="cls-3" d="M59.842,65.777a.852.852,0,0,0,.967.927,2.518,2.518,0,0,0,1.1-.313l.193.7a3.1,3.1,0,0,1-1.419.367A1.746,1.746,0,0,1,58.838,65.5c0-1.157.56-1.947,1.763-1.947,1.135,0,1.579.843,1.579,1.786v.437Zm.706-1.487c-.5,0-.706.453-.706.9h1.373c0-.483-.146-.9-.667-.9"/><path class="cls-3" d="M63.729,64.62c0,.582,1.626.405,1.626,1.633,0,.682-.506,1.211-1.48,1.211a2.4,2.4,0,0,1-1.127-.276l.207-.7a1.745,1.745,0,0,0,.89.261c.329,0,.551-.185.551-.414,0-.675-1.6-.452-1.6-1.733,0-.552.421-1.05,1.433-1.05a3.007,3.007,0,0,1,1.057.184l-.138.728a2.232,2.232,0,0,0-.9-.191c-.345,0-.514.13-.514.345"/><path class="cls-3" d="M68.383,67.387l-.139-.445a1.342,1.342,0,0,1-1.1.521,1.165,1.165,0,0,1-1.257-1.2c0-.7.513-1.111,1.418-1.111h.79v-.192c0-.483-.276-.637-.66-.637a2.7,2.7,0,0,0-1.126.254l-.253-.714a3.81,3.81,0,0,1,1.479-.306c1.066,0,1.525.491,1.525,1.449v2.384Zm-.284-1.64h-.621c-.414,0-.6.2-.6.482a.5.5,0,0,0,.559.552,1.124,1.124,0,0,0,.667-.253Z"/><path class="cls-3" d="M71.994,64.466a1.705,1.705,0,0,0-.469-.061,1.084,1.084,0,0,0-.674.253v2.729h-1V63.631h.7l.108.506h.023a1.007,1.007,0,0,1,.9-.576,1.632,1.632,0,0,1,.436.055Z"/><path class="cls-3" d="M74.653,64.466a1.7,1.7,0,0,0-.468-.061,1.084,1.084,0,0,0-.674.253v2.729h-1V63.631h.7l.107.506h.023a1.009,1.009,0,0,1,.9-.576,1.641,1.641,0,0,1,.437.055Z"/><path class="cls-3" d="M78.363,65.5c0,1.28-.643,1.963-1.762,1.963s-1.764-.675-1.764-1.963a1.772,1.772,0,1,1,3.526,0m-1.026,0c0-.905-.269-1.219-.736-1.219s-.728.323-.728,1.219c0,.874.237,1.227.728,1.227s.736-.33.736-1.227"/><path class="cls-3" d="M79.046,66.391V62.1h.989v4.239c0,.314.191.36.605.36v.7a3.138,3.138,0,0,1-.552.061c-.766,0-1.042-.406-1.042-1.072"/><path class="cls-3" d="M81.223,66.391V62.1h.989v4.239c0,.314.191.36.6.36v.7a3.15,3.15,0,0,1-.551.061c-.767,0-1.043-.406-1.043-1.072"/><path class="cls-3" d="M86.766,65.5c0,1.28-.645,1.963-1.764,1.963s-1.763-.675-1.763-1.963a1.772,1.772,0,1,1,3.527,0m-1.028,0c0-.905-.268-1.219-.736-1.219s-.728.323-.728,1.219c0,.874.237,1.227.728,1.227s.736-.33.736-1.227"/><path class="cls-3" d="M51.024,76.717l-.058-2.4h-.018c-.05.3-.1.522-.139.686l-.4,1.714h-.813L49.205,75c-.038-.164-.088-.383-.143-.686h-.017l-.038,2.4H48.5l.11-2.842h.948s.311,1.431.475,2.349h.013c.19-.914.56-2.349.56-2.349h.93l.11,2.842Z"/><path class="cls-3" d="M52.289,76.717V75.05L52.05,75v-.345h.787v2.064Zm-.016-2.906h.556v.5h-.556Z"/><path class="cls-3" d="M54.618,76.717V75.491c0-.311-.118-.458-.371-.458a.672.672,0,0,0-.362.126v1.558h-.551V74.654h.379l.083.236a.855.855,0,0,1,.654-.278c.522,0,.728.307.728.829v1.276Z"/><path class="cls-3" d="M55.8,76.717V75.05L55.555,75v-.345h.788v2.064Zm-.016-2.906h.556v.5h-.556Z"/><path class="cls-3" d="M57.319,75.2c0,.319.893.223.893.9,0,.375-.278.666-.812.666a1.326,1.326,0,0,1-.62-.151l.114-.384a.96.96,0,0,0,.488.144c.182,0,.3-.1.3-.228,0-.37-.88-.248-.88-.952,0-.3.231-.576.787-.576a1.683,1.683,0,0,1,.582.1l-.077.4a1.227,1.227,0,0,0-.5-.1c-.189,0-.282.071-.282.19"/><path class="cls-3" d="M59.406,76.759c-.366,0-.606-.173-.606-.69V75.045h-.307v-.392H58.8V74.3l.543-.176v.534H59.9v.392h-.552v1.011a.207.207,0,0,0,.22.235.742.742,0,0,0,.315-.075l.085.4a1.18,1.18,0,0,1-.557.139"/><path class="cls-3" d="M60.682,75.833a.468.468,0,0,0,.53.509,1.39,1.39,0,0,0,.607-.172l.1.387a1.69,1.69,0,0,1-.779.2A.96.96,0,0,1,60.13,75.68c0-.635.308-1.068.968-1.068.624,0,.868.462.868.98v.241Zm.388-.817c-.275,0-.388.248-.388.492h.755c0-.265-.081-.492-.367-.492"/><path class="cls-3" d="M63.553,75.112a.927.927,0,0,0-.257-.033.6.6,0,0,0-.371.139v1.5h-.547V74.654h.383l.059.278h.013a.551.551,0,0,1,.492-.317.912.912,0,0,1,.24.03Z"/><path class="cls-3" d="M64.053,76.717V75.05L63.813,75v-.345H64.6v2.064Zm-.016-2.906h.555v.5h-.555Z"/><path class="cls-3" d="M66.954,75.681c0,.7-.354,1.078-.969,1.078s-.968-.371-.968-1.078a.973.973,0,1,1,1.937,0m-.565,0c0-.5-.147-.669-.4-.669s-.4.176-.4.669.13.674.4.674.4-.181.4-.674"/><path class="cls-3" d="M69.627,74.814a1.236,1.236,0,0,1-.052-.379v-.624h.548v2.906h-.447l-.063-.228a.668.668,0,0,1-.547.27c-.468,0-.842-.337-.842-1.074,0-.683.387-1.074.888-1.074a.678.678,0,0,1,.515.2m-.052.311a.738.738,0,0,0-.374-.1c-.262,0-.426.177-.426.657s.156.678.418.678a.541.541,0,0,0,.382-.177Z"/><path class="cls-3" d="M71.09,75.833a.468.468,0,0,0,.531.509,1.4,1.4,0,0,0,.607-.172l.105.387a1.694,1.694,0,0,1-.779.2.959.959,0,0,1-1.015-1.079c0-.635.307-1.068.968-1.068.622,0,.867.462.867.98v.241Zm.387-.817c-.273,0-.387.248-.387.492h.754c0-.265-.081-.492-.367-.492"/><path class="cls-3" d="M74.882,76.759c-.8,0-1.229-.531-1.229-1.478,0-.884.425-1.448,1.229-1.448a1.769,1.769,0,0,1,.968.24l-.21.446a1.182,1.182,0,0,0-.7-.2c-.472,0-.707.332-.707.955,0,.658.235.994.7.994a1.306,1.306,0,0,0,.748-.261l.177.447a1.678,1.678,0,0,1-.977.3"/><path class="cls-3" d="M76.3,76.717V75.05L76.056,75v-.345h.787v2.064Zm-.016-2.906h.555v.5H76.28Z"/><path class="cls-3" d="M77.815,75.833a.468.468,0,0,0,.531.509,1.39,1.39,0,0,0,.607-.172l.105.387a1.687,1.687,0,0,1-.779.2.96.96,0,0,1-1.015-1.079c0-.635.307-1.068.969-1.068.622,0,.867.462.867.98v.241Zm.388-.817c-.273,0-.388.248-.388.492h.755c0-.265-.081-.492-.367-.492"/><path class="cls-3" d="M80.8,76.717V75.491c0-.311-.118-.458-.37-.458a.67.67,0,0,0-.363.126v1.558h-.551V74.654h.378l.084.236a.855.855,0,0,1,.653-.278c.523,0,.729.307.729.829v1.276Z"/><path class="cls-3" d="M83.448,76.578a1.609,1.609,0,0,1-.708.18c-.614,0-.986-.349-.986-1.072a.949.949,0,0,1,.981-1.075,1.4,1.4,0,0,1,.708.169l-.143.374a1.027,1.027,0,0,0-.518-.126c-.286,0-.467.194-.467.658s.172.656.472.656a1.209,1.209,0,0,0,.559-.155Z"/><path class="cls-3" d="M83.981,76.717V75.05L83.741,75v-.345h.788v2.064Zm-.016-2.906h.555v.5h-.555Z"/><path class="cls-3" d="M86.3,76.717l-.075-.244a.742.742,0,0,1-.6.286.639.639,0,0,1-.69-.661c0-.383.282-.611.778-.611h.434v-.1c0-.266-.152-.35-.363-.35a1.5,1.5,0,0,0-.618.139l-.14-.391a2.1,2.1,0,0,1,.814-.169c.585,0,.838.269.838.8v1.309Zm-.156-.9H85.8c-.228,0-.333.109-.333.265a.274.274,0,0,0,.307.3.617.617,0,0,0,.367-.139Z"/><path class="cls-3" d="M87.1,76.123h.556v.627c0,.354-.2.5-.556.539V77c.076-.017.13-.088.13-.286l-.13-.063Z"/><polygon class="cls-3" points="49.601 79.753 49.601 82.128 49.027 82.128 49.027 79.753 48.341 79.753 48.341 79.286 50.308 79.286 50.308 79.753 49.601 79.753"/><path class="cls-3" d="M50.628,81.244a.468.468,0,0,0,.53.51,1.391,1.391,0,0,0,.607-.173l.1.387a1.694,1.694,0,0,1-.779.2.959.959,0,0,1-1.015-1.078c0-.635.307-1.069.968-1.069.623,0,.867.462.867.98v.241Zm.387-.817c-.274,0-.387.248-.387.492h.754c0-.265-.08-.492-.367-.492"/><path class="cls-3" d="M53.97,81.989a1.6,1.6,0,0,1-.708.181c-.614,0-.985-.35-.985-1.073a.949.949,0,0,1,.981-1.075,1.4,1.4,0,0,1,.708.169l-.144.374a1.027,1.027,0,0,0-.518-.125c-.286,0-.467.193-.467.657s.173.656.472.656a1.217,1.217,0,0,0,.56-.155Z"/><path class="cls-3" d="M55.615,82.128V80.9c0-.312-.118-.459-.37-.459a.67.67,0,0,0-.363.126v1.558h-.551V80.065h.379l.083.236a.858.858,0,0,1,.654-.278c.522,0,.728.307.728.829v1.276Z"/><path class="cls-3" d="M58.478,81.092c0,.7-.354,1.078-.969,1.078s-.969-.37-.969-1.078a.974.974,0,1,1,1.938,0m-.564,0c0-.5-.148-.669-.405-.669s-.4.177-.4.669.131.674.4.674.405-.181.405-.674"/><path class="cls-3" d="M58.893,81.58V79.223h.543v2.328c0,.173.1.2.333.2v.388a1.71,1.71,0,0,1-.3.034c-.421,0-.573-.224-.573-.591"/><path class="cls-3" d="M61.979,81.092c0,.7-.354,1.078-.968,1.078s-.969-.37-.969-1.078a.973.973,0,1,1,1.937,0m-.564,0c0-.5-.148-.669-.4-.669s-.4.177-.4.669.13.674.4.674.4-.181.4-.674"/><path class="cls-3" d="M64.261,80.065l-.01.408a1.538,1.538,0,0,1-.387-.071.559.559,0,0,1,.207.324.782.782,0,0,1-.851.708,1.172,1.172,0,0,1-.265-.039c-.064.022-.1.06-.1.114,0,.223,1.309-.038,1.309.737,0,.485-.462.75-.981.75-.433,0-.872-.19-.872-.569,0-.265.21-.4.548-.454-.257-.03-.514-.11-.514-.35,0-.173.16-.3.391-.316a.634.634,0,0,1-.37-.581.758.758,0,0,1,.85-.7c.224,0,.687.037,1.046.042M63.136,82.01a.3.3,0,0,0-.316.3c0,.182.164.313.388.313.248,0,.412-.127.412-.342,0-.18-.16-.248-.484-.274m.446-1.288c0-.244-.206-.307-.367-.307s-.37.063-.37.307c0,.261.2.324.37.324s.367-.063.367-.324"/><path class="cls-3" d="M64.487,79.745l-.056-.316,1.066-.3.072.4Zm.3,2.383V80.461l-.24-.05v-.346h.786v2.063Z"/><path class="cls-3" d="M67.113,82.128l-.075-.244a.738.738,0,0,1-.6.286.64.64,0,0,1-.69-.661c0-.383.282-.61.778-.61h.434v-.106c0-.265-.152-.349-.362-.349a1.479,1.479,0,0,0-.618.139l-.14-.392a2.1,2.1,0,0,1,.813-.169c.585,0,.839.27.839.8v1.309Zm-.156-.9h-.341c-.227,0-.333.109-.333.265a.275.275,0,0,0,.307.3.623.623,0,0,0,.367-.139Z"/><path class="cls-3" d="M67.916,81.535h.556v.627c0,.354-.2.5-.556.539v-.287c.077-.017.13-.088.13-.286l-.13-.063Z"/><path class="cls-3" d="M71.01,82.17c-.8,0-1.23-.53-1.23-1.478,0-.884.426-1.448,1.23-1.448a1.79,1.79,0,0,1,.969.239l-.211.448a1.186,1.186,0,0,0-.7-.2c-.471,0-.707.333-.707.956,0,.657.236.994.7.994a1.316,1.316,0,0,0,.749-.261l.177.446a1.68,1.68,0,0,1-.977.3"/><path class="cls-3" d="M74.066,81.092c0,.7-.353,1.078-.968,1.078s-.969-.37-.969-1.078a.973.973,0,1,1,1.937,0m-.564,0c0-.5-.148-.669-.4-.669s-.4.177-.4.669.13.674.4.674.4-.181.4-.674"/><path class="cls-3" d="M75.758,82.128V80.9c0-.312-.118-.459-.37-.459a.67.67,0,0,0-.363.126v1.558h-.551V80.065h.378l.084.236a.854.854,0,0,1,.653-.278c.522,0,.729.307.729.829v1.276Z"/><path class="cls-3" d="M78.62,81.092c0,.7-.354,1.078-.968,1.078s-.97-.37-.97-1.078a.974.974,0,1,1,1.938,0m-.564,0c0-.5-.148-.669-.4-.669s-.4.177-.4.669.131.674.4.674.4-.181.4-.674"/><path class="cls-3" d="M80.674,81.989a1.6,1.6,0,0,1-.708.181c-.614,0-.985-.35-.985-1.073a.949.949,0,0,1,.98-1.075,1.4,1.4,0,0,1,.709.169l-.144.374a1.029,1.029,0,0,0-.518-.125c-.286,0-.467.193-.467.657s.172.656.472.656a1.209,1.209,0,0,0,.559-.155Z"/><path class="cls-3" d="M81.208,82.128V80.46l-.241-.05v-.345h.788v2.063Zm-.018-2.906h.556v.5H81.19Z"/><path class="cls-3" d="M84.078,80.852v1.276h-.555V80.9c0-.312-.114-.459-.371-.459a.635.635,0,0,0-.35.126v1.558h-.551V80.065h.371l.092.24a.775.775,0,0,1,.611-.282.662.662,0,0,1,.644.29.811.811,0,0,1,.623-.29c.589,0,.763.307.763.829v1.276H84.8V80.9c0-.312-.132-.459-.388-.459a.637.637,0,0,0-.349.126,1.56,1.56,0,0,1,.02.282"/><path class="cls-3" d="M85.967,82.128V80.46l-.24-.05v-.345h.788v2.063Zm-.016-2.906h.555v.5h-.555Z"/><path class="cls-3" d="M87.487,81.244a.468.468,0,0,0,.53.51,1.391,1.391,0,0,0,.607-.173l.105.387a1.687,1.687,0,0,1-.779.2.96.96,0,0,1-1.015-1.078c0-.635.308-1.069.969-1.069.623,0,.867.462.867.98v.241Zm.388-.817c-.274,0-.388.248-.388.492h.754c0-.265-.08-.492-.366-.492"/><path class="cls-3" d="M90.468,82.128V80.9c0-.312-.119-.459-.371-.459a.666.666,0,0,0-.362.126v1.558h-.552V80.065h.379l.084.236a.854.854,0,0,1,.653-.278c.522,0,.728.307.728.829v1.276Z"/><path class="cls-3" d="M92.239,82.17c-.367,0-.607-.173-.607-.691V80.456h-.307v-.391h.307v-.358l.544-.178v.536h.551v.391h-.551v1.011a.206.206,0,0,0,.219.236.751.751,0,0,0,.316-.076l.084.4a1.179,1.179,0,0,1-.556.139"/><path class="cls-3" d="M94.9,81.092c0,.7-.353,1.078-.968,1.078s-.969-.37-.969-1.078a.973.973,0,1,1,1.937,0m-.564,0c0-.5-.148-.669-.4-.669s-.4.177-.4.669.13.674.4.674.4-.181.4-.674"/><path class="cls-3" d="M49,86.655a.468.468,0,0,0,.53.51,1.378,1.378,0,0,0,.607-.173l.1.387a1.681,1.681,0,0,1-.779.2A.96.96,0,0,1,48.447,86.5c0-.635.308-1.068.968-1.068.623,0,.867.462.867.98v.24Zm.387-.817c-.274,0-.387.249-.387.493h.754c0-.265-.08-.493-.367-.493"/><rect class="cls-3" x="51.717" y="84.697" width="0.551" height="2.842"/><path class="cls-3" d="M54.138,87.54V86.314c0-.311-.118-.459-.37-.459a.662.662,0,0,0-.363.127V87.54h-.551V85.476h.379l.083.236a.859.859,0,0,1,.653-.278c.523,0,.729.307.729.83V87.54Z"/><path class="cls-3" d="M56.427,87.54V86.314c0-.311-.118-.459-.37-.459a.659.659,0,0,0-.362.127V87.54h-.552V85.476h.38l.083.236a.858.858,0,0,1,.654-.278c.521,0,.727.307.727.83V87.54Z"/><path class="cls-3" d="M59.29,86.5c0,.7-.354,1.077-.969,1.077s-.968-.37-.968-1.077a.973.973,0,1,1,1.937,0m-.565,0c0-.5-.148-.669-.4-.669s-.4.176-.4.669.13.674.4.674.4-.182.4-.674"/><polygon class="cls-3" points="60.905 87.54 60.101 87.54 59.482 85.476 60.101 85.476 60.535 87.207 60.552 87.207 60.981 85.476 61.537 85.476 60.905 87.54"/><path class="cls-3" d="M63.086,87.54,63.01,87.3a.741.741,0,0,1-.6.286.64.64,0,0,1-.69-.662c0-.383.282-.61.778-.61h.434V86.2c0-.265-.152-.349-.363-.349a1.488,1.488,0,0,0-.619.139l-.139-.392a2.1,2.1,0,0,1,.813-.168c.586,0,.838.269.838.8v1.31Zm-.156-.9h-.341c-.228,0-.333.109-.333.266a.274.274,0,0,0,.307.3.617.617,0,0,0,.367-.139Z"/><path class="cls-3" d="M65.582,87.4a1.613,1.613,0,0,1-.708.18c-.614,0-.986-.349-.986-1.073a.949.949,0,0,1,.982-1.074,1.384,1.384,0,0,1,.707.169l-.143.374a1.033,1.033,0,0,0-.518-.126c-.286,0-.468.193-.468.657s.173.657.472.657a1.206,1.206,0,0,0,.561-.156Z"/><path class="cls-3" d="M66.115,87.539V85.872l-.24-.05v-.346h.787v2.063ZM66.1,84.634h.556v.5H66.1Z"/><path class="cls-3" d="M69.016,86.5c0,.7-.354,1.077-.968,1.077s-.97-.37-.97-1.077a.974.974,0,1,1,1.938,0m-1.479-1.348-.054-.315,1.065-.3.072.405Zm.915,1.348c0-.5-.148-.669-.4-.669s-.4.176-.4.669.13.674.4.674.4-.182.4-.674"/><path class="cls-3" d="M70.707,87.54V86.314c0-.311-.118-.459-.37-.459a.659.659,0,0,0-.362.127V87.54h-.552V85.476H69.8l.084.236a.857.857,0,0,1,.653-.278c.522,0,.728.307.728.83V87.54Z"/><rect class="cls-4" x="148.041" y="106.551" width="0.581" height="5.831"/><polygon class="cls-4" points="151.123 107.616 151.123 112.382 150.546 112.382 150.546 106.546 150.997 106.546 154.976 111.405 154.976 106.552 155.555 106.552 155.555 112.382 155.052 112.382 151.123 107.616"/><rect class="cls-4" x="157.478" y="106.551" width="0.586" height="5.831"/><path class="cls-4" d="M162.437,106.513a2.364,2.364,0,0,1,2.221,1.276l-.472.282a1.916,1.916,0,0,0-1.78-1.047,2.3,2.3,0,0,0-2.227,2.435,2.4,2.4,0,0,0,2.254,2.465,2.08,2.08,0,0,0,1.852-1.093l.485.244a2.619,2.619,0,0,1-2.367,1.361,2.961,2.961,0,0,1-2.806-3.008,2.85,2.85,0,0,1,2.84-2.915"/><rect class="cls-4" x="166.21" y="106.551" width="0.582" height="5.831"/><path class="cls-4" d="M168.076,112.382l2.51-5.836h.483l2.506,5.836h-.63l-.78-1.821h-2.7l-.767,1.821Zm2.751-5.161-1.23,2.886h2.434Z"/><polygon class="cls-4" points="178.517 107.057 176.372 107.057 176.372 112.383 175.788 112.383 175.788 107.057 173.645 107.057 173.645 106.546 178.517 106.546 178.517 107.057"/><rect class="cls-4" x="179.841" y="106.551" width="0.581" height="5.831"/><polygon class="cls-4" points="182.297 106.546 184.442 111.671 186.574 106.546 187.198 106.546 184.701 112.382 184.182 112.382 181.683 106.546 182.297 106.546"/><path class="cls-4" d="M187.363,112.382l2.513-5.836h.479l2.507,5.836h-.628l-.784-1.821h-2.691l-.766,1.821Zm2.759-5.161-1.237,2.886h2.432Z"/><path class="cls-4" d="M198.9,106.513a2.349,2.349,0,0,1,2.21,1.276l-.473.282a1.9,1.9,0,0,0-1.776-1.047,2.3,2.3,0,0,0-2.219,2.435,2.389,2.389,0,0,0,2.251,2.465,2.06,2.06,0,0,0,1.845-1.093l.5.244a2.637,2.637,0,0,1-2.379,1.361,2.966,2.966,0,0,1-2.8-3.008,2.853,2.853,0,0,1,2.849-2.915"/><rect class="cls-4" x="202.656" y="106.551" width="0.588" height="5.831"/><polygon class="cls-4" points="209.194 111.871 209.194 112.383 205.158 112.383 205.158 106.546 209.118 106.546 209.118 107.057 205.737 107.057 205.737 109.163 208.684 109.163 208.684 109.648 205.737 109.648 205.737 111.871 209.194 111.871"/><polygon class="cls-4" points="211.323 107.616 211.323 112.382 210.745 112.382 210.745 106.546 211.197 106.546 215.167 111.405 215.167 106.552 215.754 106.552 215.754 112.382 215.253 112.382 211.323 107.616"/><polygon class="cls-4" points="221.943 107.057 219.808 107.057 219.808 112.383 219.214 112.383 219.214 107.057 217.08 107.057 217.08 106.546 221.943 106.546 221.943 107.057"/><path class="cls-4" d="M223.614,105.747l-.384-.14.5-.764h.607Zm-.348.8h.581v5.831h-.581Z"/><polygon class="cls-4" points="225.765 112.382 225.765 106.546 229.697 106.546 229.697 107.056 226.348 107.056 226.348 109.199 229.182 109.199 229.182 109.68 226.348 109.68 226.348 112.382 225.765 112.382"/><rect class="cls-4" x="231.108" y="106.551" width="0.591" height="5.831"/><path class="cls-4" d="M236.076,106.513a2.361,2.361,0,0,1,2.215,1.276l-.473.282a1.906,1.906,0,0,0-1.779-1.047,2.3,2.3,0,0,0-2.222,2.435,2.391,2.391,0,0,0,2.246,2.465,2.065,2.065,0,0,0,1.852-1.093l.493.244a2.641,2.641,0,0,1-2.377,1.361,2.964,2.964,0,0,1-2.8-3.008,2.851,2.851,0,0,1,2.848-2.915"/><path class="cls-4" d="M239.12,112.382l2.51-5.836h.483l2.511,5.836h-.637l-.776-1.821H240.52l-.778,1.821Zm2.762-5.161-1.244,2.886h2.442Z"/><path class="cls-4" d="M135.708,107.411a.542.542,0,0,1-.095-.014c-11.569-2.622-19.821-6.794-23.219-11.735a8.1,8.1,0,0,1-1.346-6.963c1.269-4.391,6.168-7.8,14.582-10.128-.044-.265-.089-.535-.12-.8-1.316-9.453.856-16.651,6.122-20.273s12.77-3.085,21.13,1.513c.233.133.462.265.707.4,5.16-7,10.071-10.36,14.608-10.01.012,0,.036.007.052.007a8.1,8.1,0,0,1,6.028,3.743c3.356,4.874,4.264,14.186,2.546,26.21a.683.683,0,0,1-.77.571.669.669,0,0,1-.572-.766c1.641-11.509.8-20.71-2.325-25.25a6.748,6.748,0,0,0-5.019-3.155.253.253,0,0,1-.048,0c-5.154-.412-10.329,5.18-13.771,9.945l-.36.506-.534-.322c-.4-.235-.8-.461-1.191-.682-7.893-4.345-14.894-4.914-19.715-1.592s-6.786,10.052-5.55,18.973c.065.451.14.905.22,1.367l.1.6-.594.165c-5.7,1.508-12.8,4.356-14.225,9.346a6.783,6.783,0,0,0,1.152,5.823c3.167,4.592,11.33,8.671,22.406,11.18a.679.679,0,0,1-.2,1.338"/><path class="cls-4" d="M140.757,104.341a.652.652,0,0,1-.5-.288c-.51-.742,1.117-9.729,1.783-12.055a126.542,126.542,0,0,1,4.314-12.465l.169-.409.44-.007a124.426,124.426,0,0,1,13.178.424c2.242.194,11.432,1.723,11.929,2.445a.68.68,0,0,1-.166.943.668.668,0,0,1-.754,0,83.111,83.111,0,0,0-11.13-2.037,122.018,122.018,0,0,0-12.577-.434,120.769,120.769,0,0,0-4.093,11.915,74.149,74.149,0,0,0-1.875,11.142.683.683,0,0,1-.278.709.657.657,0,0,1-.439.114"/><path class="cls-4" d="M139.446,112.57a4.974,4.974,0,0,1-.778-.123,4.869,4.869,0,0,1-3.566-5.869.678.678,0,0,1,1.317.321,3.493,3.493,0,0,0,5.213,3.818,3.437,3.437,0,0,0,1.584-2.157,3.5,3.5,0,0,0-2.566-4.235.676.676,0,1,1,.328-1.311,4.862,4.862,0,0,1,1.359,8.873,4.952,4.952,0,0,1-2.891.683"/><path class="cls-4" d="M137.905,104.7a.254.254,0,0,1-.072-.013L136.2,104.3c-10.726-2.494-18.489-6.279-21.3-10.356a5.036,5.036,0,0,1-.919-4.4c.919-3.2,5.6-6.166,12.849-8.128l.674-.182a.3.3,0,0,1,.232.021.326.326,0,0,1,.141.188l.162.676a69.776,69.776,0,0,0,9.209,20.709l.872,1.336a.319.319,0,0,1,.1.235.314.314,0,0,1-.31.3ZM127.353,81.887l-.37.1c-7.037,1.909-11.57,4.724-12.425,7.714a4.409,4.409,0,0,0,.833,3.89c2.73,3.964,10.364,7.658,20.946,10.132l.906.206-.5-.78a70.1,70.1,0,0,1-9.293-20.889Zm10.5,19.063a.32.32,0,0,1-.268-.149l-.873-1.494a66.763,66.763,0,0,1-7.287-17.51l-.168-.683a.3.3,0,0,1,.032-.227.306.306,0,0,1,.2-.141l.681-.142a88.338,88.338,0,0,1,13.093-1.647l1.055-.057a.263.263,0,0,1,.261.127.3.3,0,0,1,.04.286l-.394.977c-1.434,3.667-2.718,7.452-3.809,11.242-.71,2.461-1.352,4.987-1.9,7.492l-.377,1.691a.3.3,0,0,1-.248.228.087.087,0,0,1-.041.007m-7.941-19.679.089.378A66.6,66.6,0,0,0,137.236,99l.486.831.206-.933c.565-2.525,1.205-5.057,1.917-7.532,1.095-3.813,2.386-7.608,3.834-11.29l.213-.545-.584.029A87.676,87.676,0,0,0,130.3,81.188Zm43.279-.866a.3.3,0,0,1-.237-.127l-1-1.35c-1.406-1.916-2.9-3.769-4.427-5.5a64.574,64.574,0,0,0-11.614-10.494l-.574-.392a.3.3,0,0,1-.126-.2.29.29,0,0,1,.052-.227l.408-.566c4.4-6.021,8.858-9.381,12.162-9.1a5.057,5.057,0,0,1,3.81,2.435c2.8,4.088,3.562,12.7,2.069,23.6l-.226,1.659a.3.3,0,0,1-.225.252.326.326,0,0,1-.077.015M155.94,62.212l.322.221a65.324,65.324,0,0,1,11.722,10.585c1.544,1.756,3.047,3.619,4.471,5.553l.544.749.127-.923c1.468-10.765.748-19.215-1.977-23.173a4.44,4.44,0,0,0-3.33-2.18c-.132-.012-.245-.016-.355-.016-3.068,0-7.181,3.231-11.3,8.875ZM129.147,79.4a.331.331,0,0,1-.168-.052.291.291,0,0,1-.126-.192l-.117-.7c-1.479-8.827.159-15.376,4.624-18.446a10.827,10.827,0,0,1,6.337-1.846c3.692,0,7.907,1.393,12.541,4.114l.609.356a.238.238,0,0,1,.14.189.324.324,0,0,1-.036.235l-.386.589a90.989,90.989,0,0,0-6.935,13.263l-.17.393a.312.312,0,0,1-.265.18l-.429.02A91.76,91.76,0,0,0,129.9,79.243l-.691.147a.2.2,0,0,1-.062.006M139.7,58.765a10.349,10.349,0,0,0-6,1.733c-4.263,2.934-5.813,9.275-4.376,17.853l.071.389.382-.081A91.646,91.646,0,0,1,144.743,76.9l.237-.008.095-.221a91.545,91.545,0,0,1,6.988-13.349l.215-.326-.343-.2c-4.474-2.632-8.706-4.024-12.238-4.024M169.721,79.02h-.042l-1.717-.26c-2.511-.368-5.091-.674-7.679-.9-3.911-.34-7.916-.49-11.861-.453l-1.054,0a.3.3,0,0,1-.25-.128.308.308,0,0,1-.031-.29l.438-.966a87.937,87.937,0,0,1,6.212-11.639l.382-.591a.322.322,0,0,1,.191-.13.307.307,0,0,1,.233.05l.578.394A66.83,66.83,0,0,1,168.87,77.179l1.085,1.347a.286.286,0,0,1,.023.341.29.29,0,0,1-.257.153M149.574,76.8c3.585,0,7.21.156,10.76.461,2.6.225,5.195.525,7.724.9l.942.143-.6-.749a65.96,65.96,0,0,0-13.628-12.945l-.317-.225-.219.328a88.8,88.8,0,0,0-6.169,11.558l-.237.536.581-.007Z"/><path class="cls-4" d="M140.757,104.341a.652.652,0,0,1-.5-.288c-.51-.742,1.117-9.729,1.783-12.055a126.542,126.542,0,0,1,4.314-12.465l.169-.409.44-.007a124.426,124.426,0,0,1,13.178.424c2.242.194,11.432,1.723,11.929,2.445a.68.68,0,0,1-.166.943.668.668,0,0,1-.754,0,83.111,83.111,0,0,0-11.13-2.037,122.018,122.018,0,0,0-12.577-.434,120.769,120.769,0,0,0-4.093,11.915,74.149,74.149,0,0,0-1.875,11.142.683.683,0,0,1-.278.709.657.657,0,0,1-.439.114"/><path class="cls-4" d="M139.446,112.57a4.952,4.952,0,0,0,2.891-.683,4.862,4.862,0,0,0-1.359-8.873.676.676,0,1,0-.328,1.311,3.5,3.5,0,0,1,2.566,4.235,3.437,3.437,0,0,1-1.584,2.157,3.493,3.493,0,0,1-5.213-3.818.678.678,0,0,0-1.317-.321,4.869,4.869,0,0,0,3.566,5.869,4.974,4.974,0,0,0,.778.123"/><path class="cls-4" d="M157.774,103.012V95.164c0-1.937-1.007-3.688-3-3.688-1.956,0-3.109,1.751-3.109,3.688v7.848h-3.624V88.324h3.353l.271,1.776a4.238,4.238,0,0,1,3.859-2.016,4.382,4.382,0,0,1,4.331,2.737,5.3,5.3,0,0,1,4.9-2.681c4.147,0,6.2,2.561,6.2,6.963v7.909h-3.622V95.1c0-1.934-.8-3.567-2.759-3.567s-3.174,1.691-3.174,3.628v7.848Z"/><path class="cls-4" d="M178.571,84.219a2.135,2.135,0,0,1-4.27,0,2.135,2.135,0,0,1,4.27,0m-3.939,18.793h3.616V88.293h-3.616Z"/><rect class="cls-4" x="181.514" y="82.227" width="3.589" height="20.785"/><path class="cls-4" d="M191.366,96.976c.237,1.816,1.813,3.126,4.363,3.126a6.033,6.033,0,0,0,3.914-1.371l2.318,2.293a9.009,9.009,0,0,1-6.3,2.374c-5.039,0-8.038-3.124-8.038-7.816,0-4.464,3.031-7.676,7.782-7.676,4.893,0,7.949,3.036,7.387,9.07Zm7.954-3c-.245-1.908-1.725-2.855-3.795-2.855a3.933,3.933,0,0,0-4.1,2.855Z"/><path class="cls-4" d="M216.355,103.012V95.34c0-2.229-1.215-3.928-3.535-3.928a3.854,3.854,0,0,0-3.743,4.1v7.5h-3.588V88.324h3.231l.245,2a6.589,6.589,0,0,1,4.807-2.2c3.439,0,6.2,2.587,6.2,7.2v7.7Z"/><path class="cls-4" d="M227.03,84.219a2.136,2.136,0,0,1-4.271,0,2.136,2.136,0,0,1,4.271,0m-3.939,18.793H226.7V88.293h-3.613Z"/><path class="cls-4" d="M244.835,95.7a7.611,7.611,0,1,1-7.654-7.64,7.4,7.4,0,0,1,7.654,7.64m-11.605,0c0,2.228,1.337,4.31,3.985,4.31s3.972-2.082,3.972-4.31a4.132,4.132,0,0,0-3.972-4.34c-2.617,0-3.985,2.139-3.985,4.34"/><rect class="cls-5" x="181.325" y="115.309" width="63.675" height="2.162"/><rect class="cls-6" x="147.929" y="115.309" width="33.478" height="2.162"/></svg>