<svg width="49" height="48" viewBox="0 0 49 48" fill="none" xmlns="http://www.w3.org/2000/svg">
<path d="M24.3438 19.9372C25.2791 19.9372 26.1762 19.6245 26.8376 19.0677C27.499 18.511 27.8705 17.7559 27.8705 16.9686C27.8705 16.1813 27.499 15.4262 26.8376 14.8695C26.1762 14.3128 25.2791 14 24.3438 14C23.4084 14 22.5113 14.3128 21.8499 14.8695C21.1885 15.4262 20.817 16.1813 20.817 16.9686C20.817 17.7559 21.1885 18.511 21.8499 19.0677C22.5113 19.6245 23.4084 19.9372 24.3438 19.9372ZM19.0536 17.3397C19.0536 17.6808 18.9738 18.0186 18.8187 18.3337C18.6636 18.6489 18.4363 18.9352 18.1497 19.1764C17.8632 19.4176 17.523 19.609 17.1486 19.7395C16.7742 19.87 16.3729 19.9372 15.9676 19.9372C15.5624 19.9372 15.1611 19.87 14.7867 19.7395C14.4123 19.609 14.0721 19.4176 13.7855 19.1764C13.499 18.9352 13.2717 18.6489 13.1166 18.3337C12.9615 18.0186 12.8817 17.6808 12.8817 17.3397C12.8817 16.6508 13.2068 15.9901 13.7855 15.503C14.3643 15.0158 15.1492 14.7422 15.9676 14.7422C16.7861 14.7422 17.571 15.0158 18.1497 15.503C18.7284 15.9901 19.0536 16.6508 19.0536 17.3397ZM35.8058 17.3397C35.8058 17.6808 35.726 18.0186 35.5709 18.3337C35.4158 18.6489 35.1885 18.9352 34.902 19.1764C34.6154 19.4176 34.2752 19.609 33.9008 19.7395C33.5264 19.87 33.1251 19.9372 32.7199 19.9372C32.3146 19.9372 31.9133 19.87 31.5389 19.7395C31.1645 19.609 30.8243 19.4176 30.5378 19.1764C30.2512 18.9352 30.0239 18.6489 29.8688 18.3337C29.7137 18.0186 29.6339 17.6808 29.6339 17.3397C29.6339 16.6508 29.9591 15.9901 30.5378 15.503C31.1165 15.0158 31.9014 14.7422 32.7199 14.7422C33.5383 14.7422 34.3232 15.0158 34.902 15.503C35.4807 15.9901 35.8058 16.6508 35.8058 17.3397ZM18.5043 21.4215C18.0026 21.9476 17.7297 22.6023 17.731 23.2769V28.843C17.731 29.7596 17.9938 30.6242 18.4602 31.3864C17.7882 31.6838 17.0364 31.8301 16.2775 31.8111C15.5187 31.7921 14.7785 31.6085 14.1287 31.278C13.4789 30.9476 12.9415 30.4814 12.5686 29.9248C12.1956 29.3682 11.9998 28.7399 12 28.1009V23.2769C12 22.7848 12.2322 22.3129 12.6456 21.9649C13.059 21.617 13.6196 21.4215 14.2042 21.4215H18.5043ZM30.2273 31.3864C30.708 30.5997 30.958 29.7277 30.9565 28.843V23.2769C30.9565 22.5748 30.6673 21.9299 30.1832 21.4215H34.4833C35.0679 21.4215 35.6285 21.617 36.0419 21.9649C36.4553 22.3129 36.6875 22.7848 36.6875 23.2769V28.1009C36.6877 28.7399 36.4919 29.3682 36.1189 29.9248C35.746 30.4814 35.2086 30.9476 34.5588 31.278C33.909 31.6085 33.1688 31.7921 32.41 31.8111C31.6511 31.8301 30.8993 31.6838 30.2273 31.3864ZM21.2578 21.4215C20.6732 21.4215 20.1126 21.617 19.6992 21.9649C19.2858 22.3129 19.0536 22.7848 19.0536 23.2769V28.843C19.0536 30.024 19.6109 31.1566 20.603 31.9917C21.5951 32.8268 22.9407 33.2959 24.3438 33.2959C25.7468 33.2959 27.0924 32.8268 28.0845 31.9917C29.0766 31.1566 29.6339 30.024 29.6339 28.843V23.2769C29.6339 22.7848 29.4017 22.3129 28.9883 21.9649C28.5749 21.617 28.0143 21.4215 27.4297 21.4215H21.2578Z" fill="#3B487F"/>
<circle cx="24.2273" cy="23.9394" r="22.9394" stroke="#3B487F" stroke-width="2"/>
</svg>
