<svg width="273" height="273" viewBox="0 0 273 273" fill="none" xmlns="http://www.w3.org/2000/svg">
<path d="M273 136.5C273 172.702 258.619 207.421 233.02 233.02C207.421 258.619 172.702 273 136.5 273C100.298 273 65.5786 258.619 39.9799 233.02C14.3812 207.421 0 172.702 0 136.5C0 100.298 14.3812 65.5786 39.9799 39.9799C65.5786 14.3812 100.298 0 136.5 0C172.702 0 207.421 14.3812 233.02 39.9799C258.619 65.5786 273 100.298 273 136.5ZM115.854 86.8993C114.579 85.9911 113.078 85.4514 111.516 85.3396C109.954 85.2277 108.391 85.5479 106.999 86.2651C105.607 86.9822 104.439 88.0687 103.624 89.4055C102.808 90.7423 102.376 92.2778 102.375 93.8438V179.156C102.376 180.722 102.808 182.258 103.624 183.594C104.439 184.931 105.607 186.018 106.999 186.735C108.391 187.452 109.954 187.772 111.516 187.66C113.078 187.549 114.579 187.009 115.854 186.101L175.573 143.444C176.679 142.655 177.58 141.613 178.202 140.405C178.824 139.198 179.149 137.859 179.149 136.5C179.149 135.141 178.824 133.802 178.202 132.595C177.58 131.387 176.679 130.345 175.573 129.556L115.854 86.8993Z" fill="#FDD466"/>
</svg>
