<svg width="48" height="48" viewBox="0 0 48 48" fill="none" xmlns="http://www.w3.org/2000/svg">
<circle cx="23.9394" cy="23.9395" r="22.9394" stroke="#3B487F" stroke-width="2"/>
<path d="M21.2988 9C21.1449 9 20.9974 9.0574 20.8885 9.15958C20.7797 9.26176 20.7186 9.40034 20.7186 9.54484V10.6345C20.7186 10.779 20.7797 10.9176 20.8885 11.0198C20.9974 11.1219 21.1449 11.1793 21.2988 11.1793H22.1691V12.6218C15.8924 13.3001 11 18.3191 11 24.3916C11 30.925 16.662 36.2418 23.6197 36.2418C30.5773 36.2418 36.2394 30.925 36.2394 24.3916C36.2414 22.1554 35.5652 19.9649 34.2898 18.0764L35.5193 17.1417L36.067 17.777C36.115 17.8327 36.1741 17.8789 36.241 17.9131C36.308 17.9472 36.3814 17.9687 36.4572 17.9762C36.533 17.9837 36.6096 17.9771 36.6827 17.9568C36.7558 17.9366 36.8239 17.9029 36.8831 17.8579L37.7853 17.172C37.9048 17.081 37.9809 16.9492 37.9969 16.8055C38.0128 16.6619 37.9674 16.5182 37.8706 16.4059L34.9498 13.0182C34.9019 12.9625 34.8428 12.9163 34.7758 12.8821C34.7089 12.848 34.6354 12.8265 34.5596 12.819C34.4839 12.8115 34.4072 12.818 34.3342 12.8383C34.2611 12.8586 34.193 12.8922 34.1338 12.9373L33.2315 13.6232C33.1121 13.7142 33.036 13.846 33.02 13.9896C33.004 14.1333 33.0494 14.277 33.1462 14.3892L33.6942 15.0245L32.47 15.9546C30.5155 14.1462 27.9374 12.9323 25.0702 12.6223V11.1793H25.9405C26.0944 11.1793 26.242 11.1219 26.3508 11.0198C26.4596 10.9176 26.5208 10.779 26.5208 10.6345V9.54484C26.5208 9.40034 26.4596 9.26176 26.3508 9.15958C26.242 9.0574 26.0944 9 25.9405 9H21.2988ZM23.6197 14.4484C29.4799 14.4484 34.2086 18.8888 34.2086 24.3916C34.2086 29.8944 29.4799 34.3348 23.6197 34.3348C17.7595 34.3348 13.0308 29.8944 13.0308 24.3916C13.0308 18.8888 17.7595 14.4484 23.6197 14.4484ZM23.6203 16.476L23.6197 24.3916L30.36 29.1445C31.3003 27.9687 31.8731 26.5703 32.0145 25.106C32.1558 23.6416 31.86 22.1693 31.1602 20.854C30.4604 19.5387 29.3843 18.4325 28.0525 17.6592C26.7208 16.886 25.186 16.4764 23.6203 16.4762V16.476Z" fill="#3B487F"/>
</svg>
